<svg width="64" height="64" viewBox="0 0 64 64" fill="none" xmlns="http://www.w3.org/2000/svg">
<path d="M32 64C36.4183 64 40 60.4183 40 56H24C24 60.4183 27.5817 64 32 64Z" fill="white"/>
<path d="M32 7.673L28.8112 8.31701C21.5021 9.79316 16.0001 16.2585 16.0001 24C16.0001 26.5113 15.4626 32.789 14.1646 38.9686C13.5203 42.0364 12.6582 45.2305 11.5124 48H52.4877C51.3419 45.2305 50.4798 42.0364 49.8355 38.9686C48.5375 32.789 48.0001 26.5113 48.0001 24C48.0001 16.2585 42.498 9.79307 35.1888 8.31698L32 7.673ZM56.8772 48C57.7702 49.7896 58.8059 51.2039 60 52H4C5.19411 51.2039 6.22979 49.7896 7.1228 48C10.7169 40.7975 12.0001 27.5166 12.0001 24C12.0001 14.3174 18.8808 6.24179 28.0194 4.39617C28.0066 4.26585 28 4.13369 28 4C28 1.79086 29.7909 0 32 0C34.2091 0 36 1.79086 36 4C36 4.13368 35.9934 4.26582 35.9806 4.39613C45.1193 6.24169 52.0001 14.3173 52.0001 24C52.0001 27.5166 53.2832 40.7975 56.8772 48Z" fill="white"/>
</svg>
