<svg width="64" height="64" viewBox="0 0 64 64" fill="none" xmlns="http://www.w3.org/2000/svg">
<path d="M32 32C38.6274 32 44 26.6274 44 20C44 13.3726 38.6274 8 32 8C25.3726 8 20 13.3726 20 20C20 26.6274 25.3726 32 32 32ZM40 20C40 24.4183 36.4183 28 32 28C27.5817 28 24 24.4183 24 20C24 15.5817 27.5817 12 32 12C36.4183 12 40 15.5817 40 20Z" fill="white"/>
<path d="M56 52C56 56 52 56 52 56H12C12 56 8 56 8 52C8 48 12 36 32 36C52 36 56 48 56 52ZM51.9999 51.9861C51.9942 50.9989 51.3849 48.0418 48.6715 45.3284C46.0625 42.7194 41.1564 40 32 40C22.8435 40 17.9374 42.7194 15.3284 45.3284C12.615 48.0418 12.0057 50.9989 12 51.9861H51.9999Z" fill="white"/>
</svg>
