<svg width="64" height="64" viewBox="0 0 64 64" fill="none" xmlns="http://www.w3.org/2000/svg">
<path d="M44 4C46.2091 4 48 5.79086 48 8V56C48 58.2091 46.2091 60 44 60H20C17.7909 60 16 58.2091 16 56V8C16 5.79086 17.7909 4 20 4H44ZM20 0C15.5817 0 12 3.58172 12 8V56C12 60.4183 15.5817 64 20 64H44C48.4183 64 52 60.4183 52 56V8C52 3.58172 48.4183 0 44 0H20Z" fill="white"/>
<path d="M32 56C34.2091 56 36 54.2091 36 52C36 49.7909 34.2091 48 32 48C29.7909 48 28 49.7909 28 52C28 54.2091 29.7909 56 32 56Z" fill="white"/>
</svg>
