<svg width="64" height="64" viewBox="0 0 64 64" fill="none" xmlns="http://www.w3.org/2000/svg">
<path d="M4 0L0 4L8.80354 16.325C9.55438 17.3761 10.7667 18 12.0585 18H12.3431C13.404 18 14.4214 18.4214 15.1716 19.1716L25.8716 29.8716L15.4039 40.4896C14.3248 40.171 13.1824 40 12 40C5.37258 40 0 45.3726 0 52C0 58.6274 5.37258 64 12 64C18.6274 64 24 58.6274 24 52C24 50.8176 23.829 49.6752 23.5104 48.5961L34.1285 38.1285L38 42L36.7818 45.6547C36.3026 47.0921 36.6767 48.6767 37.7481 49.7481L50.8284 62.8284C51.6095 63.6095 52.6332 64 53.6569 64C54.6805 64 55.7042 63.6095 56.4853 62.8284L62.8284 56.4853C63.6095 55.7042 64 54.6805 64 53.6569C64 52.6332 63.6095 51.6095 62.8284 50.8284L49.7481 37.7481C48.6767 36.6767 47.0921 36.3026 45.6547 36.7818L42 38L38.157 34.157L48.8765 23.5895C49.8724 23.8572 50.9195 24 52 24C58.6274 24 64 18.6274 64 12C64 10.925 63.8587 9.8831 63.5935 8.89174L55.0294 17.4558L48 15.9999L46.5442 8.97056L55.1083 0.406459C54.1169 0.141343 53.075 0 52 0C45.3726 0 40 5.37258 40 12C40 13.0805 40.1428 14.1276 40.4106 15.1236L29.843 25.843L19.1716 15.1716C18.4214 14.4214 18 13.404 18 12.3431V12.0585C18 10.7667 17.3761 9.55438 16.325 8.80354L4 0ZM42.5858 42.5858C43.3668 41.8047 44.6332 41.8047 45.4142 42.5858L57.0711 54.2426C57.8521 55.0237 57.8521 56.29 57.0711 57.0711C56.29 57.8521 55.0237 57.8521 54.2426 57.0711L42.5858 45.4142C41.8047 44.6332 41.8047 43.3668 42.5858 42.5858ZM12 43.9999L13.8842 44.968L16 45.0717L17.1477 46.8522L18.9282 47.9999L19.0319 50.1157L20 51.9999L19.0319 53.8841L18.9282 55.9999L17.1477 57.1477L16 58.9281L13.8842 59.0319L12 59.9999L10.1158 59.0319L8 58.9281L6.85226 57.1477L5.07179 55.9999L4.96806 53.8841L4 51.9999L4.96806 50.1157L5.07179 47.9999L6.85226 46.8522L8 45.0717L10.1158 44.968L12 43.9999Z" fill="white"/>
</svg>
