<?xml version="1.0" encoding="UTF-8" standalone="no"?>
<svg
   width="456"
   height="456"
   viewBox="0 0 456 456"
   version="1.1"
   xml:space="preserve"
   style="fill-rule:evenodd;clip-rule:evenodd;stroke-linejoin:round;stroke-miterlimit:2;"
   id="svg4"
   sodipodi:docname="put_logo2.svg"
   inkscape:version="1.3 (0e150ed6c4, 2023-07-21)"
   xmlns:inkscape="http://www.inkscape.org/namespaces/inkscape"
   xmlns:sodipodi="http://sodipodi.sourceforge.net/DTD/sodipodi-0.dtd"
   xmlns="http://www.w3.org/2000/svg"
   xmlns:svg="http://www.w3.org/2000/svg"><defs
   id="defs4" /><sodipodi:namedview
   id="namedview4"
   pagecolor="#505050"
   bordercolor="#eeeeee"
   borderopacity="1"
   inkscape:showpageshadow="0"
   inkscape:pageopacity="0"
   inkscape:pagecheckerboard="0"
   inkscape:deskcolor="#505050"
   showgrid="false"
   inkscape:zoom="1.8004386"
   inkscape:cx="227.72229"
   inkscape:cy="183.56638"
   inkscape:window-width="1920"
   inkscape:window-height="1017"
   inkscape:window-x="-8"
   inkscape:window-y="-8"
   inkscape:window-maximized="1"
   inkscape:current-layer="svg4" />&#10;    &#10;    &#10;    &#10;    &#10;<g
   id="g45"
   transform="matrix(2.7655989,0,0,2.7655989,95.761506,95.760123)">&#10;		<path
   fill-rule="evenodd"
   clip-rule="evenodd"
   fill="#00628b"
   d="m 95.631,47.817 c 0,26.406 -21.408,47.815 -47.815,47.815 C 21.408,95.632 0,74.223 0,47.817 0,21.408 21.408,0 47.816,0 74.223,0 95.631,21.408 95.631,47.817 Z"
   id="path1-9" />&#10;		<path
   fill="#ffffff"
   d="m 84.058,33.12 -0.413,-0.979 2.257,-0.362 z m -1.459,2.419 0.655,-0.275 -0.155,-0.369 3.589,-2.762 -0.454,-1.08 -4.488,0.627 -0.15,-0.354 -0.652,0.273 0.384,0.915 1.626,-0.272 0.542,1.289 -1.327,0.984 z"
   id="path2-1" />&#10;		<path
   fill="#ffffff"
   d="m 80.677,31.06 0.616,-0.353 -0.216,-0.375 1.068,-0.614 c 0.497,-0.284 0.63,-0.764 0.365,-1.227 l -0.255,-0.441 1.796,0.105 0.294,0.515 0.621,-0.357 -0.501,-0.871 -2.658,-0.042 1.98,-1.137 -0.618,-1.077 -0.621,0.354 0.216,0.375 -3.177,1.827 -0.216,-0.375 -0.614,0.352 0.619,1.079 1.913,-1.097 0.525,0.917 c 0.108,0.189 0.036,0.334 -0.205,0.473 l -1.553,0.893 z"
   id="path3-6" />&#10;		<path
   fill="#ffffff"
   d="m 78.956,26.409 0.893,-0.653 c 0.464,-0.34 0.543,-0.82 0.227,-1.251 L 79.457,23.657 C 79.328,23.48 79.388,23.323 79.61,23.161 l 0.478,-0.35 c 0.228,-0.167 0.385,-0.17 0.515,0.009 l 0.62,0.845 -0.523,0.384 0.471,0.646 1.102,-0.806 -1.234,-1.686 C 80.724,21.772 80.233,21.7 79.77,22.037 l -0.835,0.611 c -0.463,0.339 -0.544,0.829 -0.229,1.261 l 0.618,0.842 c 0.128,0.178 0.072,0.33 -0.156,0.498 l -0.525,0.384 c -0.225,0.164 -0.392,0.173 -0.521,-0.003 l -0.678,-0.926 0.635,-0.462 -0.49,-0.672 -1.207,0.883 1.312,1.792 c 0.316,0.434 0.804,0.497 1.262,0.164 z"
   id="path4-9" />&#10;		<path
   fill="#ffffff"
   d="m 79.102,20.896 0.514,-0.498 -0.823,-0.852 -2.159,2.084 c -0.157,0.151 -0.329,0.345 -0.511,0.582 l 1.376,-4.007 -0.892,-0.923 -0.514,0.499 0.3,0.31 -2.636,2.546 -0.299,-0.311 -0.51,0.492 0.825,0.854 2.153,-2.082 c 0.157,-0.151 0.333,-0.348 0.52,-0.59 l -1.327,4.066 0.538,0.556 3.145,-3.037 z m 0.688,-2.387 -0.555,-0.573 -1.114,0.339 0.443,0.459 z"
   id="path5" />&#10;		<path
   fill="#ffffff"
   d="m 72.614,20.516 0.448,-0.548 -0.309,-0.254 1.877,-4.121 -0.908,-0.742 -3.669,2.657 -0.299,-0.243 -0.448,0.547 0.769,0.628 1.309,-1.003 1.083,0.885 -0.71,1.49 z m 0.156,-2.821 -0.824,-0.672 1.824,-1.376 z"
   id="path6" />&#10;		<path
   fill="#ffffff"
   d="m 71.441,13.96 0.373,-0.609 -1.012,-0.618 -1.564,2.56 c -0.113,0.186 -0.232,0.417 -0.347,0.691 l 0.323,-4.224 -1.094,-0.668 -0.373,0.61 0.369,0.225 -1.911,3.126 -0.368,-0.226 -0.371,0.605 1.013,0.619 1.562,-2.555 c 0.114,-0.187 0.234,-0.423 0.354,-0.706 l -0.263,4.271 0.661,0.404 2.278,-3.732 z"
   id="path7" />&#10;		<polygon
   fill="#ffffff"
   points="64.748,13.304 64.38,14.098 62.877,13.406 66.578,11.006 66.851,10.416 63.83,9.023 63.172,10.452 63.899,10.786 64.257,10.008 65.686,10.664 61.977,13.047 61.703,13.645 64.804,15.073 65.466,13.634 "
   id="polygon7" />&#10;		<path
   fill="#ffffff"
   d="m 60.551,12.011 c -0.089,0.262 -0.214,0.37 -0.419,0.3 l -0.917,-0.312 c -0.207,-0.068 -0.247,-0.233 -0.157,-0.496 l 0.91,-2.682 c 0.091,-0.267 0.218,-0.36 0.426,-0.29 l 0.916,0.312 c 0.207,0.068 0.245,0.219 0.154,0.485 z m 0.71,0.458 1.042,-3.065 C 62.488,8.861 62.272,8.414 61.765,8.242 L 60.398,7.777 c -0.506,-0.173 -0.95,0.052 -1.134,0.595 l -1.042,3.066 c -0.183,0.536 0.032,0.984 0.539,1.156 l 1.367,0.465 c 0.508,0.171 0.95,-0.052 1.133,-0.59 z"
   id="path8" />&#10;		<path
   fill="#ffffff"
   d="m 57.136,8.711 c -0.055,0.272 -0.171,0.386 -0.384,0.343 l -1.025,-0.208 0.291,-1.43 1.023,0.208 c 0.216,0.044 0.278,0.188 0.222,0.464 z M 57.924,8.91 58.097,8.054 C 58.211,7.492 57.947,7.077 57.423,6.971 l -2.481,-0.502 -0.143,0.699 0.424,0.087 -0.73,3.589 -0.423,-0.086 -0.141,0.695 1.688,0.343 0.14,-0.695 -0.468,-0.095 0.304,-1.498 1.137,0.233 c 0.599,0.12 1.063,-0.188 1.194,-0.831 z"
   id="path9" />&#10;		<path
   fill="#ffffff"
   d="m 48.916,8.704 -1.063,-0.013 0.57,-2.214 z m 1.632,2.303 0.009,-0.709 -0.399,-0.004 -1.096,-4.395 -1.173,-0.014 -1.217,4.363 -0.386,-0.006 -0.008,0.71 0.992,0.012 0.401,-1.599 1.397,0.018 0.372,1.61 z"
   id="path10" />&#10;		<path
   fill="#ffffff"
   d="M 45.78,10.969 45.702,10.265 45.273,10.312 45.137,9.089 C 45.075,8.518 44.689,8.204 44.158,8.264 l -0.505,0.056 0.815,-1.604 0.589,-0.065 -0.08,-0.71 -0.998,0.11 -1.101,2.419 -0.25,-2.271 -1.237,0.137 0.078,0.711 0.43,-0.048 0.4,3.642 -0.428,0.048 0.076,0.703 1.238,-0.134 -0.242,-2.192 1.05,-0.116 c 0.218,-0.024 0.322,0.102 0.353,0.377 l 0.195,1.782 z"
   id="path11" />&#10;		<polygon
   fill="#ffffff"
   points="40.448,7.245 40.309,6.543 38.659,6.873 38.799,7.573 39.222,7.491 39.939,11.082 39.515,11.167 39.655,11.861 41.304,11.534 41.165,10.837 40.735,10.923 40.017,7.331 "
   id="polygon11" />&#10;		<path
   fill="#ffffff"
   d="m 37.766,7.794 -0.21,-0.684 -1.134,0.349 0.883,2.868 c 0.064,0.209 0.161,0.449 0.289,0.719 l -2.951,-3.039 -1.226,0.376 0.211,0.684 0.412,-0.128 1.077,3.502 -0.412,0.127 0.208,0.677 1.134,-0.348 -0.88,-2.862 C 35.102,9.825 35.006,9.578 34.874,9.302 L 37.9,12.327 38.638,12.1 37.352,7.921 Z"
   id="path12" />&#10;		<polygon
   fill="#ffffff"
   points="31.727,14.693 30.789,12.679 32.161,12.038 33.101,14.053 34.228,13.525 33.928,12.883 33.537,13.066 31.987,9.742 32.378,9.559 32.076,8.91 30.948,9.437 31.888,11.453 30.516,12.093 29.575,10.077 28.447,10.602 28.75,11.25 29.142,11.068 30.693,14.393 30.302,14.576 30.601,15.218 "
   id="polygon12" />&#10;		<path
   fill="#ffffff"
   d="m 29.89,15.598 -0.832,-1.379 -0.613,0.37 0.466,0.771 -1.076,0.65 c -0.187,0.114 -0.336,0.038 -0.481,-0.199 L 25.89,13.386 c -0.145,-0.24 -0.134,-0.398 0.052,-0.511 l 1.076,-0.65 0.456,0.754 0.611,-0.37 -0.824,-1.366 -1.892,1.143 c -0.458,0.277 -0.571,0.76 -0.275,1.25 l 1.673,2.772 c 0.293,0.486 0.773,0.609 1.232,0.332 z"
   id="path13" />&#10;		<polygon
   fill="#ffffff"
   points="21.464,16.136 23.718,19.022 23.378,19.288 23.814,19.846 26.598,17.672 25.601,16.398 25.033,16.842 25.591,17.559 24.358,18.522 23.387,17.28 24.665,16.278 24.245,15.741 22.965,16.74 22.102,15.636 23.296,14.704 23.826,15.383 24.384,14.946 23.414,13.703 20.682,15.837 21.124,16.401 "
   id="polygon13" />&#10;		<polygon
   fill="#ffffff"
   points="20.81,17.602 19.808,16.582 16.998,19.34 18,20.361 18.538,19.832 18.037,19.322 18.612,18.758 21.18,21.373 20.843,21.703 21.34,22.208 22.6,20.97 22.102,20.464 21.763,20.798 19.195,18.187 19.771,17.621 20.271,18.13 "
   id="polygon14" />&#10;		<polygon
   fill="#ffffff"
   points="16.875,20.545 16.333,20.083 15.242,21.364 15.786,21.828 16.067,21.498 18.857,23.872 18.577,24.201 19.116,24.66 20.208,23.378 19.667,22.92 19.382,23.253 16.591,20.88 "
   id="polygon15" />&#10;		<polygon
   fill="#ffffff"
   points="16.771,24.912 17.603,25.494 16.827,26.602 13.826,24.5 14.095,24.116 13.512,23.706 12.528,25.109 13.114,25.519 13.36,25.165 16.36,27.267 16.113,27.623 16.693,28.027 18.604,25.3 17.192,24.311 "
   id="polygon16" />&#10;		<path
   fill="#ffffff"
   d="m 14.875,28.862 c 0.244,0.129 0.33,0.271 0.228,0.465 l -0.455,0.853 c -0.102,0.195 -0.27,0.207 -0.515,0.077 l -2.501,-1.33 c -0.25,-0.133 -0.321,-0.273 -0.219,-0.466 l 0.455,-0.854 c 0.103,-0.192 0.256,-0.207 0.506,-0.074 z m 0.566,-0.626 -2.858,-1.52 c -0.508,-0.271 -0.984,-0.129 -1.234,0.344 l -0.679,1.274 c -0.25,0.471 -0.101,0.946 0.406,1.214 l 2.859,1.521 c 0.5,0.266 0.977,0.125 1.228,-0.348 l 0.679,-1.273 c 0.249,-0.472 0.1,-0.946 -0.401,-1.212 z"
   id="path16" />&#10;		<path
   fill="#ffffff"
   d="m 10.953,31.771 c 0.257,0.1 0.351,0.232 0.272,0.438 L 10.848,33.181 9.487,32.654 9.865,31.68 c 0.078,-0.203 0.23,-0.242 0.495,-0.14 z m 0.33,-0.744 -0.815,-0.316 C 9.934,30.504 9.48,30.695 9.287,31.192 l -0.917,2.362 0.667,0.258 0.156,-0.402 3.415,1.324 -0.155,0.405 0.661,0.255 0.621,-1.605 -0.66,-0.257 -0.171,0.446 -1.426,-0.552 0.42,-1.082 c 0.221,-0.571 -0.003,-1.079 -0.615,-1.317 z"
   id="path17" />&#10;		<polygon
   fill="#ffffff"
   points="85.206,43.958 85.18,43.528 84.467,43.568 84.52,44.507 86.661,45.377 84.636,46.495 84.695,47.511 85.409,47.469 85.383,47.038 87.433,45.771 88.974,45.682 89.001,46.146 89.709,46.104 89.61,44.38 88.9,44.421 88.926,44.872 87.346,44.962 "
   id="polygon17" />&#10;		<path
   fill="#ffffff"
   d="m 89.762,48.39 -2.917,-0.122 -0.068,1.618 0.715,0.028 0.035,-0.839 1.493,0.063 -0.051,1.254 c -0.01,0.222 -0.155,0.306 -0.432,0.293 L 85.706,50.57 c -0.283,-0.013 -0.407,-0.107 -0.398,-0.327 l 0.052,-1.26 0.835,0.037 0.031,-0.726 -1.55,-0.067 -0.094,2.222 c -0.021,0.535 0.318,0.897 0.891,0.921 l 3.236,0.137 c 0.566,0.021 0.936,-0.31 0.958,-0.843 z"
   id="path18" />&#10;		<path
   fill="#ffffff"
   d="m 88.243,53.499 c 0.273,0.048 0.399,0.151 0.366,0.368 l -0.153,0.955 c -0.035,0.215 -0.189,0.282 -0.461,0.236 l -2.799,-0.449 c -0.279,-0.042 -0.393,-0.151 -0.357,-0.366 l 0.154,-0.956 c 0.033,-0.216 0.173,-0.277 0.453,-0.233 z m 0.334,-0.77 -3.198,-0.515 c -0.566,-0.094 -0.972,0.195 -1.055,0.723 l -0.229,1.426 c -0.086,0.53 0.21,0.93 0.777,1.021 l 3.198,0.51 c 0.559,0.09 0.964,-0.195 1.049,-0.726 l 0.228,-1.424 c 0.083,-0.53 -0.211,-0.928 -0.77,-1.015 z"
   id="path19" />&#10;		<polygon
   fill="#ffffff"
   points="86.885,57.358 87.868,57.62 87.521,58.931 83.981,57.992 84.102,57.538 83.411,57.354 82.97,59.011 83.663,59.193 83.772,58.776 87.314,59.714 87.204,60.132 87.89,60.312 88.742,57.09 87.074,56.65 "
   id="polygon19" />&#10;		<path
   fill="#ffffff"
   d="m 86.073,62.029 c 0.259,0.1 0.361,0.227 0.286,0.435 l -0.345,0.902 c -0.077,0.205 -0.242,0.238 -0.501,0.141 L 82.864,62.499 C 82.601,62.401 82.512,62.27 82.591,62.065 l 0.342,-0.903 c 0.077,-0.204 0.228,-0.238 0.491,-0.137 z m 0.483,-0.692 -3.028,-1.149 c -0.535,-0.204 -0.991,-0.004 -1.18,0.495 l -0.512,1.351 c -0.188,0.503 0.018,0.951 0.555,1.156 l 3.027,1.149 c 0.531,0.201 0.985,0 1.175,-0.5 l 0.512,-1.348 c 0.188,-0.502 -0.019,-0.951 -0.549,-1.154 z"
   id="path20" />&#10;		<path
   fill="#ffffff"
   d="m 81.841,63.831 -0.628,-0.343 -0.571,1.038 2.63,1.445 c 0.192,0.104 0.427,0.211 0.707,0.313 l -4.233,-0.126 -0.619,1.122 0.627,0.345 0.208,-0.378 3.211,1.763 -0.208,0.381 0.622,0.338 0.57,-1.035 -2.623,-1.443 C 81.341,67.145 81.101,67.033 80.812,66.93 l 4.281,0.065 0.37,-0.679 -3.833,-2.104 z"
   id="path21" />&#10;		<polygon
   fill="#ffffff"
   points="81.176,73.199 79.393,71.873 80.296,70.659 82.081,71.984 82.821,70.988 82.253,70.565 81.996,70.911 79.05,68.721 79.307,68.372 78.731,67.948 77.992,68.948 79.778,70.276 78.875,71.491 77.087,70.166 76.348,71.16 76.921,71.588 77.178,71.243 80.123,73.431 79.867,73.776 80.437,74.198 "
   id="polygon21" />&#10;		<path
   fill="#ffffff"
   d="m 79.514,75.289 -1.192,-1.083 -0.48,0.528 0.666,0.604 -0.844,0.934 c -0.147,0.16 -0.313,0.131 -0.518,-0.055 l -2.097,-1.903 c -0.21,-0.192 -0.245,-0.346 -0.097,-0.507 l 0.845,-0.928 0.651,0.592 0.481,-0.528 -1.181,-1.073 -1.487,1.636 c -0.359,0.395 -0.331,0.89 0.094,1.273 l 2.396,2.18 c 0.419,0.38 0.916,0.364 1.275,-0.034 z"
   id="path22" />&#10;		<polygon
   fill="#ffffff"
   points="71.202,77.228 73.583,80.011 73.254,80.292 73.715,80.83 76.398,78.536 75.348,77.308 74.8,77.775 75.39,78.464 74.2,79.481 73.173,78.284 74.409,77.229 73.964,76.711 72.731,77.764 71.819,76.698 72.97,75.714 73.529,76.37 74.069,75.908 73.043,74.713 70.409,76.964 70.873,77.509 "
   id="polygon22" />&#10;		<polygon
   fill="#ffffff"
   points="70.702,78.542 69.906,77.354 66.633,79.542 67.428,80.729 68.055,80.31 67.658,79.715 68.328,79.272 70.363,82.316 69.972,82.575 70.365,83.167 71.833,82.186 71.439,81.597 71.043,81.859 69.008,78.814 69.678,78.368 70.075,78.962 "
   id="polygon23" />&#10;		<polygon
   fill="#ffffff"
   points="63.717,81.851 64.066,82.637 64.766,82.325 64.129,80.886 61.059,82.244 61.348,82.898 61.742,82.724 63.224,86.073 62.829,86.248 63.117,86.896 64.701,86.195 64.414,85.547 63.967,85.745 63.342,84.33 64.879,83.649 64.59,82.995 63.051,83.676 62.484,82.394 "
   id="polygon24" />&#10;		<polygon
   fill="#ffffff"
   points="54.061,84.876 54.491,84.823 54.4,84.114 53.466,84.233 52.747,86.431 51.492,84.485 50.481,84.616 50.571,85.323 51,85.27 52.406,87.226 52.603,88.757 52.142,88.814 52.231,89.52 53.944,89.3 53.855,88.597 53.408,88.653 53.207,87.083 "
   id="polygon25" />&#10;		<polygon
   fill="#ffffff"
   points="50.035,86.058 50.023,84.628 46.086,84.66 46.099,86.089 46.852,86.083 46.847,85.371 47.652,85.363 47.682,89.026 47.212,89.029 47.219,89.738 48.983,89.727 48.977,89.015 48.5,89.02 48.471,85.354 49.276,85.35 49.281,86.063 "
   id="polygon26" />&#10;		<polygon
   fill="#ffffff"
   points="45.43,85.308 45.492,84.595 43.816,84.448 43.755,85.161 44.185,85.198 43.864,88.848 43.435,88.809 43.373,89.515 45.047,89.664 45.109,88.957 44.673,88.919 44.992,85.27 "
   id="polygon27" />&#10;		<path
   fill="#ffffff"
   d="m 42.171,88.479 0.203,-1.088 c 0.105,-0.565 -0.167,-0.967 -0.692,-1.068 L 40.65,86.135 c -0.216,-0.043 -0.278,-0.198 -0.229,-0.47 l 0.109,-0.58 c 0.052,-0.279 0.165,-0.389 0.38,-0.351 l 1.033,0.195 -0.12,0.636 0.785,0.148 0.251,-1.343 -2.052,-0.383 c -0.526,-0.101 -0.934,0.186 -1.038,0.749 l -0.192,1.02 c -0.105,0.562 0.172,0.974 0.698,1.073 l 1.026,0.191 c 0.216,0.038 0.279,0.192 0.227,0.469 l -0.119,0.64 c -0.052,0.271 -0.166,0.396 -0.381,0.354 l -1.126,-0.211 0.143,-0.772 -0.816,-0.153 -0.275,1.469 2.185,0.41 c 0.527,0.097 0.927,-0.185 1.032,-0.747 z"
   id="path27" />&#10;		<path
   fill="#ffffff"
   d="m 38.094,88.667 0.201,-0.68 -0.419,-0.125 0.277,-0.94 c 0.158,-0.529 0.066,-0.833 -0.403,-1.114 0.463,0.073 0.735,-0.078 0.855,-0.477 l 0.23,-0.784 C 38.999,83.998 38.77,83.562 38.256,83.41 l -2.429,-0.72 -0.202,0.687 0.415,0.12 -1.04,3.516 -0.413,-0.125 -0.201,0.684 1.191,0.35 0.635,-2.145 1.019,0.303 c 0.217,0.064 0.25,0.223 0.171,0.488 l -0.515,1.741 z M 37.819,85.12 c -0.079,0.265 -0.203,0.366 -0.414,0.305 l -1,-0.295 0.413,-1.4 1.001,0.296 c 0.211,0.063 0.261,0.211 0.182,0.484 z"
   id="path28" />&#10;		<polygon
   fill="#ffffff"
   points="32.062,81.919 30.615,85.287 30.217,85.116 29.938,85.77 33.183,87.162 33.821,85.677 33.159,85.392 32.8,86.226 31.362,85.606 31.984,84.155 33.476,84.797 33.747,84.169 32.253,83.527 32.808,82.241 34.2,82.839 33.859,83.632 34.509,83.912 35.132,82.464 31.947,81.093 31.665,81.751 "
   id="polygon28" />&#10;		<polygon
   fill="#ffffff"
   points="27.742,78.776 27.388,79.4 27.763,79.612 26.606,83.986 27.461,84.478 30.648,81.263 31.023,81.479 31.38,80.854 30.435,80.314 27.539,83.354 28.684,79.314 "
   id="polygon29" />&#10;		<polygon
   fill="#ffffff"
   points="26.827,78.981 27.244,78.399 25.875,77.419 25.459,78.002 25.811,78.254 23.678,81.23 23.327,80.979 22.913,81.556 24.28,82.535 24.694,81.958 24.338,81.703 26.471,78.728 "
   id="polygon30" />&#10;		<path
   fill="#ffffff"
   d="m 24.851,77.573 0.469,-0.539 -0.895,-0.775 -1.967,2.264 c -0.143,0.166 -0.298,0.373 -0.457,0.625 l 1.019,-4.113 -0.968,-0.839 -0.469,0.538 0.326,0.282 -2.403,2.767 -0.327,-0.283 -0.463,0.537 0.894,0.776 1.964,-2.261 c 0.144,-0.165 0.302,-0.376 0.466,-0.635 l -0.966,4.168 0.584,0.505 2.867,-3.298 z"
   id="path30" />&#10;		<path
   fill="#ffffff"
   d="m 21.069,74.245 0.536,-0.472 -0.788,-0.894 -2.973,2.615 c -0.206,0.186 -0.373,0.211 -0.517,0.047 l -0.673,-0.766 c -0.146,-0.164 -0.095,-0.321 0.115,-0.505 l 2.971,-2.616 -0.827,-0.939 -0.537,0.474 0.29,0.329 -2.469,2.176 c -0.498,0.438 -0.539,1.023 -0.13,1.488 l 0.746,0.844 c 0.413,0.471 1,0.504 1.498,0.063 l 2.469,-2.172 z"
   id="path31" />&#10;		<path
   fill="#ffffff"
   d="m 16.502,68.611 0.62,-0.358 -0.596,-1.024 -2.596,1.503 c -0.189,0.109 -0.402,0.258 -0.635,0.446 l 2.295,-3.561 -0.645,-1.108 -0.617,0.358 0.216,0.372 -3.167,1.841 -0.217,-0.373 -0.612,0.354 0.596,1.028 2.588,-1.504 c 0.189,-0.111 0.408,-0.262 0.647,-0.452 l -2.263,3.632 0.39,0.668 3.78,-2.195 z"
   id="path32" />&#10;		<path
   fill="#ffffff"
   d="m 11.527,63.822 -0.418,-0.98 2.255,-0.372 z m -1.447,2.423 0.651,-0.277 -0.156,-0.366 3.576,-2.778 -0.461,-1.079 -4.482,0.649 -0.152,-0.353 -0.652,0.275 0.39,0.913 1.625,-0.281 0.549,1.287 -1.322,0.99 z"
   id="path33" />&#10;		<path
   fill="#ffffff"
   d="m 12.39,60.396 0.687,-0.199 -0.333,-1.139 -2.881,0.84 C 9.654,59.96 9.411,60.048 9.14,60.174 l 3.083,-2.906 -0.36,-1.229 -0.688,0.198 0.122,0.414 -3.517,1.028 -0.12,-0.415 -0.682,0.2 0.333,1.137 2.874,-0.84 c 0.21,-0.062 0.459,-0.153 0.736,-0.281 l -3.067,2.983 0.216,0.742 4.197,-1.226 z"
   id="path34" />&#10;		<polygon
   fill="#ffffff"
   points="8.125,55.093 7.259,55.23 7,53.596 11.051,55.34 11.694,55.24 11.175,51.954 9.623,52.2 9.747,52.991 10.593,52.855 10.839,54.408 6.799,52.648 6.149,52.749 6.684,56.123 8.248,55.874 "
   id="polygon34" />&#10;		<path
   fill="#ffffff"
   d="M 7.083,50.636 C 6.806,50.652 6.661,50.574 6.65,50.355 L 6.602,49.389 C 6.592,49.172 6.729,49.074 7.006,49.06 l 2.829,-0.136 c 0.282,-0.015 0.416,0.07 0.427,0.287 l 0.047,0.964 c 0.011,0.221 -0.115,0.309 -0.396,0.322 z m -0.165,0.829 3.234,-0.157 c 0.572,-0.031 0.909,-0.393 0.882,-0.929 l -0.07,-1.441 C 10.937,48.402 10.567,48.074 9.996,48.101 L 6.76,48.26 c -0.566,0.028 -0.904,0.392 -0.876,0.926 l 0.07,1.441 c 0.025,0.535 0.398,0.866 0.964,0.838 z"
   id="path35" />&#10;		<path
   fill="#ffffff"
   d="M 9.201,46.36 C 8.926,46.339 8.797,46.241 8.813,46.022 l 0.082,-1.042 1.455,0.114 -0.079,1.039 c -0.019,0.219 -0.154,0.3 -0.436,0.279 z m -0.102,0.807 0.872,0.067 c 0.572,0.044 0.951,-0.27 0.992,-0.802 l 0.195,-2.525 -0.713,-0.057 -0.033,0.431 -3.653,-0.28 0.032,-0.432 -0.707,-0.055 -0.131,1.717 0.708,0.055 0.035,-0.476 1.524,0.118 -0.09,1.156 c -0.046,0.611 0.314,1.032 0.969,1.083 z"
   id="path36" />&#10;		<path
   fill="#ffffff"
   d="m 60.902,86.474 c 0.086,0.265 0.051,0.426 -0.156,0.493 l -0.918,0.304 c -0.209,0.068 -0.339,-0.038 -0.425,-0.301 l -0.89,-2.689 c -0.09,-0.27 -0.044,-0.42 0.165,-0.488 l 0.918,-0.303 c 0.207,-0.067 0.327,0.026 0.417,0.295 z m 0.84,-0.06 -1.016,-3.075 c -0.182,-0.546 -0.623,-0.771 -1.129,-0.604 l -1.371,0.455 c -0.508,0.165 -0.727,0.611 -0.546,1.158 l 1.015,3.072 c 0.179,0.538 0.62,0.767 1.129,0.598 l 1.37,-0.451 c 0.509,-0.17 0.728,-0.619 0.548,-1.153 z"
   id="path37" />&#10;		<path
   fill-rule="evenodd"
   clip-rule="evenodd"
   fill="#ffffff"
   d="m 75.3,52.146 c 0.227,-1.448 0.349,-2.903 0.349,-4.331 0,-0.708 -0.032,-1.426 -0.093,-2.178 l 4.798,-1.558 0.368,-0.12 -0.049,-0.383 C 80.237,40.158 79.27,36.842 77.799,33.717 l -0.177,-0.373 -0.391,0.129 -4.714,1.532 c -1.068,-2.056 -2.381,-3.961 -3.909,-5.679 l 2.943,-4.055 0.232,-0.32 -0.275,-0.281 c -2.411,-2.468 -5.177,-4.535 -8.22,-6.145 l -0.357,-0.188 -0.239,0.326 -2.926,4.024 c -2.125,-1.01 -4.379,-1.746 -6.709,-2.189 V 15.514 15.11 l -0.398,-0.058 c -1.597,-0.234 -3.222,-0.353 -4.834,-0.353 -1.807,0 -3.633,0.15 -5.428,0.444 l -0.391,0.064 v 0.397 5.006 c -2.264,0.482 -4.464,1.253 -6.556,2.292 l -2.915,-4.013 -0.242,-0.331 -0.361,0.197 c -3.021,1.656 -5.756,3.765 -8.131,6.267 l -0.266,0.282 0.227,0.314 2.963,4.078 c -1.441,1.677 -2.677,3.513 -3.677,5.471 l -4.707,-1.53 -0.394,-0.127 -0.174,0.376 c -1.452,3.127 -2.4,6.451 -2.817,9.875 l -0.046,0.382 0.366,0.119 4.806,1.562 c -0.052,0.709 -0.079,1.366 -0.079,1.989 0,1.368 0.11,2.76 0.319,4.149 l -4.715,1.53 -0.392,0.125 0.077,0.407 c 0.644,3.39 1.809,6.64 3.464,9.666 l 0.187,0.34 0.368,-0.118 4.797,-1.561 c 1.005,1.635 2.185,3.172 3.515,4.578 l -2.923,4.029 -0.238,0.329 0.291,0.28 c 2.476,2.405 5.295,4.401 8.375,5.93 l 0.354,0.177 0.233,-0.319 2.946,-4.06 c 1.724,0.758 3.518,1.336 5.345,1.727 v 5.004 0.397 l 0.391,0.065 c 1.792,0.294 3.618,0.444 5.428,0.444 1.611,0 3.236,-0.119 4.834,-0.352 l 0.398,-0.06 v -0.4 -4.984 c 1.884,-0.359 3.726,-0.913 5.484,-1.645 l 2.962,4.073 0.229,0.317 0.35,-0.169 c 3.105,-1.483 5.955,-3.437 8.465,-5.808 l 0.3,-0.281 -0.242,-0.332 -2.914,-4.01 c 1.425,-1.45 2.685,-3.053 3.753,-4.768 l 4.804,1.56 0.367,0.122 0.186,-0.339 c 1.673,-3.018 2.858,-6.264 3.52,-9.646 L 80.4,53.804 80.008,53.675 Z m 0.865,10.922 -4.775,-1.554 -0.353,-0.113 -0.189,0.315 c -1.142,1.886 -2.519,3.631 -4.091,5.19 l -0.286,0.282 0.236,0.321 2.897,3.991 c -2.272,2.09 -4.817,3.837 -7.579,5.196 l -2.946,-4.053 -0.221,-0.307 -0.343,0.148 c -1.913,0.834 -3.933,1.438 -6.006,1.803 l -0.387,0.064 v 0.393 4.961 c -1.423,0.189 -2.866,0.29 -4.299,0.29 -1.629,0 -3.271,-0.128 -4.885,-0.378 V 74.639 74.257 L 42.561,74.18 c -2.009,-0.397 -3.982,-1.034 -5.864,-1.892 l -0.347,-0.156 -0.225,0.309 -2.932,4.035 c -2.74,-1.401 -5.257,-3.185 -7.498,-5.307 l 2.91,-4.004 0.231,-0.318 -0.275,-0.281 c -1.478,-1.521 -2.773,-3.207 -3.847,-5.012 l -0.19,-0.319 -0.357,0.115 -4.771,1.548 c -1.448,-2.719 -2.489,-5.624 -3.104,-8.647 l 4.69,-1.523 0.381,-0.124 -0.064,-0.394 c -0.241,-1.468 -0.366,-2.948 -0.366,-4.397 0,-0.706 0.035,-1.452 0.104,-2.283 l 0.03,-0.368 -0.353,-0.116 -4.781,-1.553 c 0.411,-3.057 1.256,-6.025 2.517,-8.839 l 4.683,1.521 0.385,0.125 0.177,-0.363 c 1.053,-2.13 2.385,-4.121 3.969,-5.911 l 0.248,-0.281 -0.22,-0.303 -2.945,-4.056 c 2.148,-2.211 4.593,-4.097 7.275,-5.61 l 2.9,3.991 0.235,0.326 0.358,-0.185 c 2.234,-1.153 4.604,-1.983 7.043,-2.467 l 0.377,-0.073 v -0.384 -4.98 c 1.619,-0.245 3.26,-0.376 4.885,-0.376 1.433,0 2.876,0.102 4.299,0.292 v 4.959 0.392 l 0.387,0.069 c 2.51,0.442 4.935,1.234 7.201,2.353 l 0.354,0.176 0.231,-0.319 2.91,-4.005 c 2.701,1.475 5.172,3.322 7.354,5.5 l -2.928,4.032 -0.224,0.31 0.257,0.282 c 1.672,1.825 3.084,3.88 4.206,6.109 l 0.178,0.359 0.382,-0.125 4.69,-1.523 c 1.279,2.81 2.142,5.773 2.568,8.821 l -4.771,1.551 -0.355,0.115 0.033,0.372 c 0.079,0.861 0.118,1.668 0.118,2.465 0,1.507 -0.133,3.044 -0.395,4.573 l -0.068,0.398 0.383,0.126 4.687,1.52 c -0.629,3.021 -1.689,5.922 -3.152,8.638 z"
   id="path38" />&#10;		<path
   fill-rule="evenodd"
   clip-rule="evenodd"
   fill="#ffffff"
   d="m 54.286,30.2 c -0.764,0.172 -1.371,-0.117 -1.607,-0.425 -0.237,-0.306 0.069,-1.252 0.33,-1.205 0.262,0.047 0.024,0.212 -0.047,0.638 -0.07,0.425 0.19,0.542 0.19,0.542 2.434,-1.842 0.542,-2.41 0.542,-2.41 0.662,-0.778 0.284,-1.937 0.284,-1.937 -1.512,0.495 -1.536,1.701 -1.536,1.701 -0.355,-0.566 -1.323,-0.212 -1.56,0.332 -0.237,0.542 -0.188,2.056 -0.188,2.056 0.966,0.212 0.755,-1.063 1.11,-1.11 0.354,-0.047 0.567,1.181 -1.088,1.488 -1.654,0.307 -2.079,-0.638 -2.267,-1.159 -0.19,-0.519 0.424,-0.969 0.565,-0.259 0.142,0.709 0.709,0.968 0.709,0.968 -0.212,-0.519 0.638,-1.323 0.567,-2.221 -0.071,-0.897 -1.607,-0.425 -1.607,-0.425 0.195,-0.444 0.12,-0.902 -0.047,-1.302 -0.101,-0.237 -0.231,-0.452 -0.359,-0.633 v -0.863 h 0.695 V 23.065 H 48.277 V 22.532 H 47.37 v 0.533 h -0.694 v 0.911 h 0.694 v 0.897 c -0.12,0.174 -0.241,0.377 -0.337,0.599 -0.167,0.4 -0.239,0.858 -0.046,1.302 0,0 -1.536,-0.472 -1.607,0.425 -0.07,0.898 0.781,1.703 0.568,2.221 0,0 0.567,-0.258 0.709,-0.968 0.142,-0.71 0.755,-0.26 0.566,0.259 -0.19,0.521 -0.615,1.465 -2.269,1.159 -1.653,-0.307 -1.439,-1.535 -1.086,-1.488 0.354,0.047 0.142,1.322 1.111,1.11 0,0 0.046,-1.514 -0.191,-2.056 -0.236,-0.544 -1.206,-0.897 -1.56,-0.332 0,0 -0.022,-1.206 -1.535,-1.701 0,0 -0.378,1.159 0.283,1.937 0,0 -1.89,0.568 0.545,2.41 0,0 0.259,-0.118 0.188,-0.542 -0.07,-0.426 -0.305,-0.591 -0.046,-0.638 0.259,-0.047 0.566,0.899 0.33,1.205 -0.235,0.308 -0.843,0.597 -1.607,0.425 -1.684,-0.378 -0.431,-3.049 -2.646,-3.308 0,0 1.179,2.853 2.593,4.561 H 54.34 c 1.414,-1.708 2.592,-4.561 2.592,-4.561 -2.215,0.259 -0.965,2.929 -2.646,3.308 z"
   id="path39" />&#10;		<path
   fill-rule="evenodd"
   clip-rule="evenodd"
   fill="#ffffff"
   d="m 52.61,38.975 c -0.261,-0.031 -0.688,-0.155 -0.806,-0.342 0.094,-0.202 0.228,-0.595 0.228,-1.053 0,-0.252 -0.042,-0.52 -0.165,-0.775 -0.097,-0.273 -0.286,-0.47 -0.549,-0.579 -0.193,-0.109 -0.404,-0.164 -0.626,-0.164 -0.72,0 -1.307,0.589 -1.307,1.306 0,0.483 0.273,0.915 0.694,1.143 -10e-4,0.008 -10e-4,0.008 -0.004,0.013 -0.107,0.008 -0.472,0.039 -0.472,0.039 l -0.022,0.074 c -0.003,0.01 -0.019,0.06 -0.019,0.129 0,0.065 0.014,0.141 0.059,0.219 0.026,0.04 0.075,0.081 0.141,0.117 -0.023,0.031 -0.026,0.041 -0.038,0.063 -0.093,10e-4 -0.521,0.024 -0.521,0.024 l -0.007,0.1 c 0,0.009 0,0.02 0,0.035 0,0.105 0.031,0.248 0.133,0.345 -0.014,0.022 -0.023,0.029 -0.036,0.042 -0.082,0 -0.375,0 -0.378,0 -10e-4,0 -0.18,-0.034 -0.262,-0.047 -0.05,-0.059 -0.367,-0.443 -0.402,-0.484 -0.087,-0.332 -0.12,-0.589 -0.12,-0.772 0,-0.392 0.134,-0.494 0.134,-0.498 0.335,-0.128 0.413,-0.253 0.426,-0.33 0.05,-0.1 0.083,-0.205 0.083,-0.301 0,-0.08 -0.022,-0.163 -0.057,-0.24 -0.031,-0.07 -0.075,-0.133 -0.129,-0.188 v -0.003 c -0.197,-0.206 -0.486,-0.33 -0.686,-0.331 -0.083,0 -0.19,0.015 -0.214,0.107 -0.017,0.049 -0.064,0.083 -0.12,0.076 -0.052,-0.004 -0.098,-0.043 -0.103,-0.099 -0.003,-0.011 -0.028,-0.187 -0.178,-0.368 -0.023,-0.016 -0.041,-0.039 -0.066,-0.053 -0.26,-0.137 -0.611,-0.106 -0.875,0.073 -0.28,0.192 -0.412,0.522 -0.369,0.906 l 0.028,0.231 0.167,-0.166 c 0.216,-0.217 0.73,0.169 0.939,0.355 -0.01,0.099 -0.066,1.107 -0.067,1.182 -0.329,0.332 -0.682,0.776 -0.783,0.902 -0.064,0.009 -0.28,0.05 -0.28,0.05 0,0 -0.278,-0.003 -0.359,-0.003 -0.018,-0.014 -0.021,-0.021 -0.037,-0.042 0.102,-0.097 0.133,-0.239 0.133,-0.345 0,-0.015 0,-0.026 -0.001,-0.035 l -0.009,-0.1 c 0,0 -0.425,-0.023 -0.517,-0.024 -0.014,-0.022 -0.023,-0.032 -0.04,-0.063 0.065,-0.036 0.115,-0.077 0.141,-0.117 0.043,-0.078 0.056,-0.154 0.056,-0.219 0,-0.069 -0.013,-0.119 -0.017,-0.129 L 45.31,38.562 c 0,0 -0.367,-0.03 -0.476,-0.039 -0.001,-0.005 -0.001,-0.005 -0.004,-0.013 0.423,-0.228 0.696,-0.66 0.696,-1.143 0,-0.717 -0.585,-1.306 -1.31,-1.306 -0.219,0 -0.433,0.055 -0.633,0.171 -0.256,0.102 -0.44,0.298 -0.55,0.587 -0.114,0.245 -0.156,0.509 -0.156,0.758 0,0.455 0.136,0.853 0.23,1.055 -0.119,0.187 -0.549,0.312 -0.808,0.342 l -0.126,0.016 0.03,0.128 c 0.119,0.49 0.521,0.668 1.159,0.517 0.102,-0.027 0.2,-0.083 0.291,-0.16 0.053,0.072 0.091,0.128 0.12,0.164 -0.008,0.077 -0.105,1.08 -0.105,1.08 -0.035,0.237 -0.585,0.381 -0.85,0.415 l -0.128,0.018 0.03,0.122 c 0.123,0.494 0.529,0.672 1.159,0.522 0.356,-0.086 0.619,-0.453 0.792,-1.062 0.014,0.023 0.024,0.031 0.033,0.042 -0.019,0.224 -0.115,1.466 -0.167,1.82 -0.031,0.236 -0.587,0.385 -0.848,0.419 l -0.128,0.015 0.03,0.126 c 0.125,0.487 0.521,0.67 1.16,0.517 0.713,-0.169 0.91,-1.413 0.961,-1.907 0,0.117 0,1.499 0,1.499 0,0 0.124,0.017 0.146,0.019 0,0.014 -0.002,0.022 -0.002,0.037 0,0.024 0.002,0.053 0.006,0.079 -0.193,0.414 -0.418,0.922 -0.523,1.15 -0.687,-0.107 -1.289,0.25 -1.315,0.27 l 0.257,0.425 c 0.004,-10e-4 0.211,-0.123 0.495,-0.185 -0.165,0.16 -0.311,0.348 -0.365,0.542 l 0.48,0.133 c 0.059,-0.211 0.455,-0.531 0.722,-0.682 0.021,-0.019 0.044,-0.033 0.061,-0.055 0.132,-0.036 0.534,-0.051 0.914,-0.036 l 0.024,-0.5 c -0.29,-0.012 -0.511,-0.007 -0.681,0 l 0.415,-0.915 c 0.004,-0.007 0.016,-0.011 0.022,-0.015 0.053,0.032 0.171,0.102 0.171,0.102 0,0 0.276,-0.102 0.379,-0.141 0.032,0.067 0.083,0.222 0.083,0.587 0,0.17 -0.013,0.382 -0.039,0.649 -0.034,0.31 -0.152,0.54 -0.35,0.69 -0.406,0.285 -1.016,0.154 -1.023,0.152 l -0.22,-0.042 0.09,0.202 c 0.182,0.423 0.438,0.673 0.748,0.734 0.294,0.058 0.565,-0.057 0.755,-0.176 -0.005,0.062 -0.014,0.121 -0.014,0.177 0,0.6 0.396,1.055 0.417,1.078 l 0.083,0.095 0.083,-0.094 c 0.026,-0.022 0.43,-0.482 0.43,-1.084 0,-0.055 -0.007,-0.115 -0.018,-0.172 0.192,0.119 0.466,0.234 0.758,0.176 0.314,-0.062 0.563,-0.312 0.75,-0.734 l 0.086,-0.202 -0.217,0.042 c -0.004,0.002 -0.617,0.133 -1.019,-0.152 -0.203,-0.15 -0.326,-0.38 -0.354,-0.69 -0.027,-0.267 -0.04,-0.479 -0.04,-0.649 0,-0.365 0.051,-0.52 0.08,-0.587 0.107,0.039 0.385,0.141 0.385,0.141 0,0 0.065,-0.039 0.12,-0.073 l 0.436,0.901 c -0.168,-0.007 -0.386,-0.012 -0.665,0 l 0.021,0.5 c 0.398,-0.016 0.823,10e-4 0.933,0.039 0.013,0.019 0.027,0.039 0.042,0.052 0.266,0.151 0.666,0.471 0.724,0.682 l 0.485,-0.133 C 50.413,45.407 50.263,45.22 50.1,45.06 c 0.278,0.062 0.486,0.184 0.492,0.185 l 0.259,-0.425 c -0.028,-0.021 -0.635,-0.38 -1.323,-0.268 -0.1,-0.207 -0.316,-0.65 -0.506,-1.043 0.023,-0.058 0.03,-0.123 0.03,-0.188 0,-0.015 0,-0.023 0,-0.037 0.018,-10e-4 0.142,-0.019 0.142,-0.019 0,0 0,-1.382 0,-1.499 0.055,0.494 0.25,1.738 0.965,1.907 0.631,0.153 1.031,-0.03 1.158,-0.517 L 51.349,43.03 51.218,43.015 C 50.956,42.981 50.406,42.832 50.37,42.596 50.321,42.242 50.225,41 50.203,40.776 c 0.008,-0.01 0.023,-0.019 0.034,-0.042 0.176,0.61 0.438,0.977 0.788,1.062 0.638,0.149 1.04,-0.028 1.164,-0.522 l 0.033,-0.122 -0.129,-0.018 C 51.83,41.1 51.279,40.957 51.242,40.719 c 0,0 -0.083,-0.882 -0.104,-1.08 0.024,-0.036 0.068,-0.092 0.119,-0.164 0.093,0.078 0.188,0.133 0.292,0.16 0.638,0.151 1.035,-0.027 1.159,-0.517 l 0.033,-0.128 z m -3.42,5.996 v 0 c 0,0 0,0 0.001,0.002 z m -0.354,-8.182 0.143,0.082 0.252,-0.434 -0.3,-0.176 0.177,-0.299 -0.43,-0.25 -0.175,0.295 -0.3,-0.176 -0.254,0.433 0.058,0.035 c 0.297,0.041 0.629,0.221 0.829,0.49 z"
   id="path40" />&#10;		<path
   fill-rule="evenodd"
   clip-rule="evenodd"
   fill="#ffffff"
   d="m 39.637,45.222 c 0.199,0.66 0.432,1.445 0.453,1.51 0.05,0.054 0.645,0.744 0.972,1.124 l 0.271,-0.058 0.094,-1.176 c -0.156,-0.12 -1.155,-0.903 -1.79,-1.4 z m -0.71,1.18 c 0,-0.049 -0.039,-0.086 -0.087,-0.086 -0.043,0 -0.081,0.037 -0.081,0.086 0,0.042 0.038,0.078 0.081,0.078 0.048,-10e-4 0.087,-0.037 0.087,-0.078 z m -2.876,-2.708 -2,-1.614 -0.903,-0.136 0.381,0.866 1.954,1.632 z m 1.17,3.014 c 0,0 0.87,-0.492 0.98,-0.555 0.048,-0.083 0.182,-0.322 0.221,-0.395 0,-0.056 0.003,-0.145 0.009,-0.271 -0.191,-0.05 -0.418,-0.104 -0.593,-0.151 -0.143,0.231 -0.652,1.066 -0.652,1.066 l -1.325,0.277 -0.102,-0.493 c 0,0 0.294,-0.058 0.587,-0.119 l -0.011,-0.007 0.466,-0.538 -1.301,-1.07 -0.982,1.296 1.108,2.079 c 0.498,-0.351 1.576,-1.111 1.595,-1.119 z m 1.798,-1.799 0.374,-0.515 1.809,1.416 -0.747,-1.919 -1.389,-0.342 c 0.993,-0.445 1.689,-1.438 1.689,-2.597 0,-1.571 -1.273,-2.844 -2.845,-2.844 -1.567,0 -2.845,1.272 -2.845,2.844 0,1.159 0.697,2.152 1.691,2.597 l -0.516,-0.073 -0.169,0.226 1.371,1.079 0.437,-0.508 0.379,0.321 -0.233,0.272 0.92,0.234 -0.026,0.726 c 0.284,0.039 0.508,0.279 0.508,0.575 0,0.316 -0.263,0.582 -0.587,0.582 -0.223,0 -0.417,-0.133 -0.516,-0.325 -0.293,0.163 -0.839,0.472 -0.839,0.472 -0.003,0 -1.564,1.1 -1.792,1.262 l -0.063,0.858 -0.355,4.477 h 5.352 l 0.121,-4.025 0.037,-1.405 -1.142,-1.318 z m -0.577,-3.605 c 0.163,-0.276 0.314,-0.629 0.315,-0.74 0,-0.375 -0.335,-0.674 -0.747,-0.674 -0.414,0 -0.75,0.3 -0.75,0.674 h -0.907 c 0,-0.872 0.741,-1.58 1.658,-1.58 0.917,0 1.659,0.708 1.659,1.58 0,0.426 -0.341,1.033 -0.445,1.208 z"
   id="path41" />&#10;		<path
   fill-rule="evenodd"
   clip-rule="evenodd"
   fill="#ffffff"
   d="m 55.7,46.89 c 0.003,0.252 0.01,0.57 0.012,0.82 0.249,-0.003 0.566,-0.007 0.819,-0.01 -0.003,-0.249 -0.007,-0.568 -0.007,-0.818 -0.258,0.004 -0.57,0.004 -0.824,0.008 z m 4.199,-2.539 0.491,0.475 1.052,-1.065 -0.488,-0.477 -0.527,-0.03 0.285,-0.3 -0.383,-0.377 -1.301,1.412 -0.145,-0.137 c -0.195,-0.078 -0.997,-0.396 -1.078,-0.43 -0.096,0.004 -1.469,0.053 -1.521,0.055 -0.045,0.016 -0.901,0.25 -1.146,0.315 -0.034,0.278 -0.064,0.567 -0.064,0.575 l -0.531,3.559 0.005,0.863 0.053,5.004 h 5.384 l -0.438,-5.113 -0.094,-1.289 -1.43,-0.133 -1.003,-0.375 0.016,1.318 -1.823,0.011 -0.015,-1.815 1.329,-0.015 -0.295,-0.594 0.812,-0.515 0.126,-0.078 c 0,0 0.201,0.104 0.44,0.232 l 1.416,-1.439 0.354,0.354 -1.3,1.32 c 0.151,0.077 0.281,0.142 0.336,0.172 0.125,-0.07 0.336,-0.185 0.336,-0.185 l 0.239,0.442 -0.569,0.31 c 0,0 -1.024,-0.527 -1.23,-0.631 -0.096,0.064 -0.179,0.118 -0.313,0.199 0.083,0.167 0.155,0.309 0.198,0.401 0.156,0.056 1.008,0.371 1.06,0.386 0.039,0.008 0.787,0.079 1.38,0.134 l 0.759,-0.062 -0.556,-2.167 -0.336,-0.326 0.481,-0.497 z m -4.732,-1.207 c 0.011,0.02 0.013,0.046 0.014,0.071 0.019,0.011 0.034,0.019 0.048,0.034 l 0.979,-0.27 1.634,-0.059 0.051,-0.005 0.72,0.288 c 0.685,-0.516 1.129,-1.331 1.129,-2.252 0,-1.571 -1.275,-2.844 -2.843,-2.844 -1.575,0 -2.846,1.272 -2.846,2.844 0,0.076 0.008,0.146 0.012,0.219 z m 1.877,-4.16 c 0.913,0 1.659,0.708 1.659,1.58 0,0.426 -0.341,1.033 -0.447,1.208 l -0.782,-0.468 c 0.166,-0.276 0.318,-0.629 0.318,-0.74 0,-0.375 -0.335,-0.674 -0.749,-0.674 -0.412,0 -0.749,0.3 -0.749,0.674 h -0.911 c 0.002,-0.872 0.746,-1.58 1.661,-1.58 z m -2.372,4.479 -0.043,-0.26 c -0.168,-0.297 -0.625,-1.112 -0.942,-1.684 v 2.584 l -0.622,1.589 0.065,1.46 1.009,0.104 c 0.155,-1.05 0.434,-2.964 0.434,-2.956 0.002,0.001 0.068,-0.558 0.099,-0.837 z"
   id="path42" />&#10;		<path
   fill-rule="evenodd"
   clip-rule="evenodd"
   fill="#ffffff"
   d="m 47.217,61.833 v 0.35 h -0.349 v 0.498 h 0.349 v 0.346 h 0.499 v -0.346 h 0.347 v -0.498 h -0.347 v -0.35 z m 2.706,0.881 -0.337,0.009 0.266,-0.319 -0.389,-0.319 -2.004,2.425 -2.007,-2.425 -0.386,0.319 0.267,0.319 -0.385,-0.009 -0.033,0.026 -0.493,0.402 0.956,1.154 0.527,-0.428 0.06,-0.381 1.169,1.41 -1.021,1.231 -1.803,0.178 0.206,2.141 2.151,-0.201 -0.176,-1.795 0.968,-1.164 0.965,1.164 -0.174,1.795 2.15,0.201 0.207,-2.141 -1.804,-0.178 -1.021,-1.23 1.169,-1.412 0.062,0.382 0.522,0.428 0.96,-1.154 -0.526,-0.429 h -0.046 z m -3.917,3.931 c 0.031,0.292 0.086,0.856 0.111,1.149 -0.293,0.029 -0.855,0.086 -1.15,0.11 -0.029,-0.298 -0.08,-0.855 -0.112,-1.148 0.297,-0.028 0.856,-0.087 1.151,-0.111 z m 2.903,0 c 0.292,0.024 0.854,0.083 1.153,0.109 -0.031,0.295 -0.086,0.853 -0.116,1.15 -0.292,-0.024 -0.857,-0.081 -1.151,-0.11 0.027,-0.293 0.085,-0.857 0.114,-1.149 z"
   id="path43" />&#10;		<path
   fill-rule="evenodd"
   clip-rule="evenodd"
   fill="#ffffff"
   d="M 64.428,32.361 H 30.748 V 54.51 c 0,8.478 7.816,15.64 17.068,15.64 4.304,0 8.626,-1.664 11.867,-4.567 3.352,-3.006 5.202,-6.941 5.202,-11.072 V 32.361 Z M 58.68,57.438 c 0,0.361 0,1.229 0,1.229 h -2.558 c 0,0 0,-0.867 0,-1.229 -0.443,0 -0.973,0 -1.415,0 0,0.361 0,1.229 0,1.229 h -2.564 c 0,0 0,-0.867 0,-1.229 -0.445,0 -0.967,0 -1.417,0 0,0.361 0,1.229 0,1.229 h -2.558 c 0,0 0,-0.867 0,-1.229 -0.446,0 -0.975,0 -1.42,0 0,0.361 0,1.229 0,1.229 h -2.562 c 0,0 0,-0.867 0,-1.229 -0.446,0 -0.97,0 -1.418,0 0,0.361 0,1.229 0,1.229 H 40.21 c 0,0 0,-0.867 0,-1.229 -0.445,0 -0.972,0 -1.417,0 0,0.361 0,1.229 0,1.229 H 36.23 c 0,0 0,-0.867 0,-1.229 -0.457,0 -1.413,0 -1.874,0 v 1.51 h 0.718 v 4.493 c -2.13,-2.498 -3.417,-5.604 -3.417,-8.931 0,0 0,-20.363 0,-21.238 0.873,0 31.443,0 32.315,0 0,0.875 0,21.238 0,21.238 0,3.547 -1.46,6.941 -4.133,9.662 v -5.225 h 0.716 v -1.51 c -0.458,0.001 -1.41,0.001 -1.875,0.001 z m -17.915,10.27 c -10e-4,-0.029 -0.002,-0.06 -0.002,-0.088 0,-1.2 0.29,-2.328 0.792,-3.32 1.126,-2.22 3.343,-3.729 5.904,-3.729 2.677,0 4.984,1.661 6.056,4.065 0.4,0.906 0.634,1.915 0.634,2.984 0,0.122 -10e-4,0.238 -0.008,0.359 -2.012,0.818 -4.172,1.261 -6.326,1.261 -2.508,0 -4.906,-0.557 -7.05,-1.532 z m 4.331,-9.949 c 0.298,0 0.443,0 0.741,0 0,-0.366 0,-1.229 0,-1.229 h 3.238 c 0,0 0,0.863 0,1.229 0.297,0 0.446,0 0.742,0 0,-0.366 0,-1.229 0,-1.229 h 1.07 v -4.801 l 0.973,-1.252 v -2.049 h -1.419 v 1.225 h -1.038 v -1.225 h -1.422 v 1.225 H 46.95 v -1.225 h -1.42 v 1.225 h -1.037 v -1.225 h -1.419 v 2.049 l 0.972,1.252 v 4.801 h 1.052 c -0.002,-10e-4 -0.002,0.863 -0.002,1.229 z m 11.935,0 c 0.294,0 0.444,0 0.742,0 0,-0.366 0,-1.229 0,-1.229 h 0.454 1.613 v -2.019 h -5.387 v 2.019 h 2.578 c 0,-10e-4 0,0.863 0,1.229 z m -19.89,0 c 0.297,0 0.443,0 0.739,0 0,-0.366 0,-1.229 0,-1.229 h 2.579 v -2.019 h -5.384 v 2.019 h 2.066 c 0,-10e-4 0,0.863 0,1.229 z"
   id="path44" />&#10;		<path
   fill-rule="evenodd"
   clip-rule="evenodd"
   fill="#ffffff"
   d="m 2.48,47.817 c 0,-24.998 20.339,-45.338 45.335,-45.338 24.998,0 45.336,20.34 45.336,45.338 0,24.999 -20.339,45.335 -45.336,45.335 C 22.819,93.152 2.48,72.815 2.48,47.817 Z m -0.904,0 c 0,25.497 20.744,46.238 46.24,46.238 25.497,0 46.24,-20.741 46.24,-46.238 0,-25.498 -20.743,-46.241 -46.24,-46.241 -25.497,0 -46.24,20.743 -46.24,46.241 z"
   id="path45" />&#10;	</g></svg>
