<svg width="32" height="33" viewBox="0 0 32 33" fill="none" xmlns="http://www.w3.org/2000/svg">
<path d="M7 0.949585C7.55228 0.949585 8 1.3973 8 1.94958V2.94958H24V1.94958C24 1.3973 24.4477 0.949585 25 0.949585C25.5523 0.949585 26 1.3973 26 1.94958V2.94958H28C30.2091 2.94958 32 4.74045 32 6.94958V28.9496C32 31.1587 30.2091 32.9496 28 32.9496H4C1.79086 32.9496 0 31.1587 0 28.9496V6.94958C0 4.74045 1.79086 2.94958 4 2.94958H6V1.94958C6 1.3973 6.44772 0.949585 7 0.949585ZM4 4.94958C2.89543 4.94958 2 5.84502 2 6.94958V28.9496C2 30.0542 2.89543 30.9496 4 30.9496H28C29.1046 30.9496 30 30.0542 30 28.9496V6.94958C30 5.84502 29.1046 4.94958 28 4.94958H4Z" fill="white"/>
<path d="M5 8.94958C5 8.3973 5.44772 7.94958 6 7.94958H26C26.5523 7.94958 27 8.3973 27 8.94958V10.9496C27 11.5019 26.5523 11.9496 26 11.9496H6C5.44772 11.9496 5 11.5019 5 10.9496V8.94958Z" fill="white"/>
<path d="M18 16.9496C18 15.845 18.8954 14.9496 20 14.9496H30V18.9496H20C18.8954 18.9496 18 18.0542 18 16.9496Z" fill="white"/>
<path d="M2 20.9496H10C11.1046 20.9496 12 21.845 12 22.9496C12 24.0542 11.1046 24.9496 10 24.9496H2V20.9496Z" fill="white"/>
</svg>
