<svg width="64" height="64" viewBox="0 0 64 64" fill="none" xmlns="http://www.w3.org/2000/svg">
<path d="M32.0001 19.0168C24.8298 19.0168 19.0171 24.8296 19.0171 31.9999C19.0171 39.1702 24.8298 44.9829 32.0001 44.9829C39.1705 44.9829 44.9832 39.1702 44.9832 31.9999C44.9832 24.8296 39.1705 19.0168 32.0001 19.0168ZM23.0171 31.9999C23.0171 27.0387 27.0389 23.0168 32.0001 23.0168C36.9613 23.0168 40.9832 27.0387 40.9832 31.9999C40.9832 36.9611 36.9613 40.9829 32.0001 40.9829C27.0389 40.9829 23.0171 36.9611 23.0171 31.9999Z" fill="white"/>
<path d="M39.1859 5.3735C37.0741 -1.79117 26.9259 -1.79116 24.8141 5.3735L24.4387 6.64717C23.8098 8.78077 21.3728 9.7902 19.4195 8.7262L18.2534 8.09105C11.694 4.5181 4.51811 11.694 8.09105 18.2534L8.7262 19.4195C9.7902 21.3728 8.78077 23.8098 6.64717 24.4387L5.3735 24.8141C-1.79117 26.9259 -1.79116 37.0741 5.3735 39.1859L6.64717 39.5613C8.78077 40.1902 9.7902 42.6272 8.7262 44.5805L8.09105 45.7466C4.51811 52.306 11.694 59.4819 18.2534 55.909L19.4195 55.2738C21.3728 54.2098 23.8098 55.2192 24.4387 57.3528L24.8141 58.6265C26.9259 65.7912 37.0741 65.7912 39.1859 58.6265L39.5613 57.3528C40.1902 55.2192 42.6272 54.2098 44.5805 55.2738L45.7466 55.909C52.306 59.4819 59.4819 52.306 55.909 45.7466L55.2738 44.5805C54.2098 42.6272 55.2192 40.1902 57.3528 39.5613L58.6265 39.1859C65.7912 37.0741 65.7912 26.9259 58.6265 24.8141L57.3528 24.4387C55.2192 23.8098 54.2098 21.3728 55.2738 19.4195L55.909 18.2534C59.4819 11.694 52.306 4.51812 45.7466 8.09105L44.5805 8.7262C42.6272 9.7902 40.1902 8.78077 39.5613 6.64717L39.1859 5.3735ZM28.6509 6.50439C29.6351 3.1652 34.3649 3.1652 35.3491 6.50439L35.7245 7.77806C37.0738 12.356 42.3027 14.5219 46.4939 12.2389L47.6599 11.6037C50.7171 9.93852 54.0615 13.2829 52.3963 16.34L51.7611 17.5061C49.4781 21.6973 51.644 26.9262 56.2219 28.2755L57.4956 28.6509C60.8348 29.6351 60.8348 34.3649 57.4956 35.3491L56.2219 35.7245C51.644 37.0738 49.4781 42.3027 51.7611 46.4939L52.3963 47.66C54.0615 50.7171 50.7171 54.0615 47.66 52.3963L46.4939 51.7611C42.3027 49.4782 37.0738 51.644 35.7245 56.2219L35.3491 57.4956C34.3649 60.8348 29.6351 60.8348 28.6509 57.4956L28.2755 56.2219C26.9262 51.644 21.6973 49.4782 17.5061 51.7611L16.34 52.3963C13.2829 54.0615 9.93852 50.7171 11.6037 47.66L12.2389 46.4939C14.5218 42.3027 12.356 37.0738 7.77806 35.7245L6.50439 35.3491C3.1652 34.3649 3.1652 29.6351 6.50439 28.6509L7.77806 28.2755C12.356 26.9262 14.5219 21.6973 12.2389 17.5061L11.6037 16.3401C9.93852 13.2829 13.2829 9.93852 16.34 11.6037L17.5061 12.2389C21.6973 14.5218 26.9262 12.356 28.2755 7.77806L28.6509 6.50439Z" fill="white"/>
</svg>
