<svg width="256" height="256" viewBox="0 0 256 256" fill="none" xmlns="http://www.w3.org/2000/svg">
<path d="M0 128C0 57.3076 57.3076 0 128 0C198.692 0 256 57.3076 256 128C256 198.692 198.692 256 128 256C57.3076 256 0 198.692 0 128ZM120 17.2249C109.289 20.5005 98.6339 30.3556 89.8039 46.9118C87.514 51.2055 85.3975 55.8694 83.4834 60.8578C94.7661 63.3745 107.048 64.978 120 65.4488V17.2249ZM67.9762 56.631C70.2628 50.4857 72.8428 44.7139 75.6863 39.3824C78.5458 34.0208 81.738 28.9986 85.2362 24.4536C71.5126 30.1276 59.1626 38.4504 48.8232 48.7847C54.607 51.7261 61.0255 54.3644 67.9762 56.631ZM56.1352 120C56.7159 102.88 59.1495 86.602 63.1173 71.8766C54.0052 68.9122 45.5964 65.3283 38.0874 61.207C25.7025 77.8516 17.8302 98.0528 16.2812 120H56.1352ZM78.539 76.1415C74.9795 89.3831 72.7194 104.208 72.1449 120H120V81.4583C105.443 80.9642 91.4732 79.1292 78.539 76.1415ZM136 81.4583V120H183.855C183.28 104.208 181.02 89.3831 177.461 76.1415C164.527 79.1292 150.557 80.9642 136 81.4583ZM72.1449 136C72.7194 151.792 74.9795 166.617 78.539 179.858C91.4732 176.871 105.443 175.036 120 174.542V136H72.1449ZM136 136V174.542C150.557 175.036 164.527 176.871 177.461 179.858C181.02 166.617 183.28 151.792 183.855 136H136ZM83.4834 195.142C85.3975 200.13 87.514 204.794 89.8039 209.088C98.6339 225.644 109.289 235.499 120 238.775V190.551C107.048 191.022 94.7661 192.625 83.4834 195.142ZM85.2362 231.546C81.738 227.001 78.5458 221.979 75.6863 216.617C72.8428 211.286 70.2628 205.514 67.9762 199.369C61.0255 201.635 54.607 204.274 48.8232 207.215C59.1626 217.549 71.5127 225.872 85.2362 231.546ZM63.1173 184.123C59.1495 169.398 56.7159 153.12 56.1352 136H16.2812C17.8302 157.947 25.7025 178.148 38.0874 194.793C45.5964 190.672 54.0052 187.088 63.1173 184.123ZM170.764 231.546C184.487 225.872 196.837 217.549 207.177 207.215C201.393 204.274 194.974 201.635 188.024 199.369C185.737 205.514 183.157 211.286 180.314 216.617C177.454 221.979 174.262 227.001 170.764 231.546ZM136 190.551V238.775C146.711 235.499 157.366 225.644 166.196 209.088C168.486 204.794 170.602 200.13 172.516 195.142C161.234 192.625 148.952 191.022 136 190.551ZM192.883 184.123C201.995 187.088 210.403 190.672 217.913 194.793C230.297 178.148 238.17 157.947 239.719 136H199.865C199.284 153.12 196.85 169.398 192.883 184.123ZM239.719 120C238.17 98.0528 230.297 77.8516 217.913 61.207C210.403 65.3283 201.995 68.9122 192.883 71.8766C196.85 86.602 199.284 102.88 199.865 120H239.719ZM180.314 39.3824C183.157 44.7139 185.737 50.4857 188.024 56.631C194.974 54.3644 201.393 51.7261 207.177 48.7847C196.837 38.4503 184.487 30.1276 170.764 24.4536C174.262 28.9985 177.454 34.0208 180.314 39.3824ZM172.516 60.8578C170.602 55.8694 168.486 51.2055 166.196 46.9118C157.366 30.3556 146.711 20.5005 136 17.2249V65.4488C148.952 64.978 161.234 63.3745 172.516 60.8578Z" fill="white"/>
</svg>
