<svg width="32" height="33" viewBox="0 0 32 33" fill="none" xmlns="http://www.w3.org/2000/svg">
<path d="M8 4.94958V8.94958H4V4.94958H8ZM10 28.9496V24.9496C10 23.845 9.10457 22.9496 8 22.9496H4C2.89543 22.9496 2 23.845 2 24.9496V28.9496C2 30.0542 2.89543 30.9496 4 30.9496H8C9.10457 30.9496 10 30.0542 10 28.9496ZM10 18.9496V14.9496C10 13.845 9.10457 12.9496 8 12.9496H4C2.89543 12.9496 2 13.845 2 14.9496V18.9496C2 20.0542 2.89543 20.9496 4 20.9496H8C9.10457 20.9496 10 20.0542 10 18.9496ZM10 8.94958V4.94958C10 3.84502 9.10457 2.94958 8 2.94958H4C2.89543 2.94958 2 3.84502 2 4.94958V8.94958C2 10.0542 2.89543 10.9496 4 10.9496H8C9.10457 10.9496 10 10.0542 10 8.94958ZM20 28.9496V24.9496C20 23.845 19.1046 22.9496 18 22.9496H14C12.8954 22.9496 12 23.845 12 24.9496V28.9496C12 30.0542 12.8954 30.9496 14 30.9496H18C19.1046 30.9496 20 30.0542 20 28.9496ZM20 18.9496V14.9496C20 13.845 19.1046 12.9496 18 12.9496H14C12.8954 12.9496 12 13.845 12 14.9496V18.9496C12 20.0542 12.8954 20.9496 14 20.9496H18C19.1046 20.9496 20 20.0542 20 18.9496ZM20 8.94958V4.94958C20 3.84502 19.1046 2.94958 18 2.94958H14C12.8954 2.94958 12 3.84502 12 4.94958V8.94958C12 10.0542 12.8954 10.9496 14 10.9496H18C19.1046 10.9496 20 10.0542 20 8.94958ZM18 4.94958V8.94958H14V4.94958H18ZM28 4.94958V8.94958H24V4.94958H28ZM8 14.9496V18.9496H4V14.9496H8ZM18 14.9496V18.9496H14V14.9496H18ZM28 14.9496H24V18.9496H28V14.9496ZM8 24.9496V28.9496H4V24.9496H8ZM18 24.9496V28.9496H14V24.9496H18ZM28 24.9496V28.9496H24V24.9496H28ZM24 2.94958C22.8954 2.94958 22 3.84502 22 4.94958V8.94958C22 10.0542 22.8954 10.9496 24 10.9496H28C29.1046 10.9496 30 10.0542 30 8.94958V4.94958C30 3.84502 29.1046 2.94958 28 2.94958H24ZM22 14.9496C22 13.845 22.8954 12.9496 24 12.9496H28C29.1046 12.9496 30 13.845 30 14.9496V18.9496C30 20.0542 29.1046 20.9496 28 20.9496H24C22.8954 20.9496 22 20.0542 22 18.9496V14.9496ZM24 22.9496C22.8954 22.9496 22 23.845 22 24.9496V28.9496C22 30.0542 22.8954 30.9496 24 30.9496H28C29.1046 30.9496 30 30.0542 30 28.9496V24.9496C30 23.845 29.1046 22.9496 28 22.9496H24Z" fill="white"/>
</svg>
