<svg width="32" height="33" viewBox="0 0 32 33" fill="none" xmlns="http://www.w3.org/2000/svg">
<path d="M17.4142 3.94968C16.6332 3.16863 15.3668 3.16863 14.5858 3.94968L1.29289 17.2426C0.902369 17.6331 0.902369 18.2663 1.29289 18.6568C1.68342 19.0473 2.31658 19.0473 2.70711 18.6568L4 17.3639V27.9497C4 29.6065 5.34315 30.9497 7 30.9497H25C26.6569 30.9497 28 29.6065 28 27.9497V17.3639L29.2929 18.6568C29.6834 19.0473 30.3166 19.0473 30.7071 18.6568C31.0976 18.2663 31.0976 17.6331 30.7071 17.2426L26 12.5355V5.94968C26 5.39739 25.5523 4.94968 25 4.94968H23C22.4477 4.94968 22 5.39739 22 5.94968V8.53546L17.4142 3.94968ZM26 15.3639V27.9497C26 28.502 25.5523 28.9497 25 28.9497H7C6.44772 28.9497 6 28.502 6 27.9497V15.3639L16 5.36389L26 15.3639Z" fill="white"/>
</svg>
