<svg width="256" height="256" viewBox="0 0 256 256" fill="none" xmlns="http://www.w3.org/2000/svg">
<path fill-rule="evenodd" clip-rule="evenodd" d="M253.072 1.81333C254.925 3.33284 256 5.60332 256 8.00007V232C256 235.814 253.308 239.097 249.569 239.845L169.569 255.845C168.533 256.052 167.467 256.052 166.431 255.845L88 240.159L9.56893 255.845C7.21873 256.315 4.78159 255.706 2.92809 254.187C1.07458 252.667 0 250.397 0 248V24.0001C0 20.1866 2.69168 16.9033 6.43107 16.1554L86.4311 0.155423C87.4668 -0.0517156 88.5332 -0.0517156 89.5689 0.155423L168 15.8416L246.431 0.155423C248.781 -0.314617 251.218 0.293822 253.072 1.81333ZM160 30.5585L96 17.7585V225.442L160 238.242V30.5585ZM176 238.242L240 225.442V17.7585L176 30.5585V238.242ZM80 225.442V17.7585L16 30.5585V238.242L80 225.442Z" fill="white"/>
</svg>
