<svg width="74" height="74" viewBox="0 0 74 74" fill="none" xmlns="http://www.w3.org/2000/svg">
<path d="M37 0.428571C39.5247 0.428571 41.5714 2.47527 41.5714 5V32.4286H69C71.5247 32.4286 73.5714 34.4753 73.5714 37C73.5714 39.5247 71.5247 41.5714 69 41.5714H41.5714V69C41.5714 71.5247 39.5247 73.5714 37 73.5714C34.4753 73.5714 32.4286 71.5247 32.4286 69V41.5714H5C2.47527 41.5714 0.428574 39.5247 0.428574 37C0.428574 34.4753 2.47527 32.4286 5 32.4286H32.4286V5C32.4286 2.47527 34.4753 0.428571 37 0.428571Z" fill="white"/>
</svg>
