<svg width="284" height="61" viewBox="0 0 284 61" fill="none" xmlns="http://www.w3.org/2000/svg">
<path fill-rule="evenodd" clip-rule="evenodd" d="M60.0523 30.3595C60.0523 46.9267 46.6942 60.3588 30.2169 60.3588C13.7389 60.3588 0.380859 46.9267 0.380859 30.3595C0.380859 13.7903 13.7389 0.358826 30.2169 0.358826C46.6942 0.358826 60.0523 13.7903 60.0523 30.3595Z" fill="#00628B"/>
<path d="M52.831 21.1385L52.5733 20.5243L53.9816 20.2971L52.831 21.1385ZM51.9206 22.6562L52.3293 22.4836L52.2326 22.2521L54.4721 20.5192L54.1888 19.8416L51.3884 20.235L51.2948 20.0129L50.8879 20.1842L51.1275 20.7583L52.1421 20.5876L52.4803 21.3964L51.6523 22.0137L51.9206 22.6562Z" fill="white"/>
<path d="M50.7215 19.846L51.1058 19.6245L50.9711 19.3893L51.6375 19.004C51.9476 18.8259 52.0306 18.5247 51.8652 18.2342L51.7061 17.9575L52.8268 18.0234L53.0102 18.3465L53.3977 18.1225L53.0851 17.5761L51.4266 17.5497L52.662 16.8364L52.2764 16.1606L51.8889 16.3827L52.0237 16.618L50.0413 17.7643L49.9066 17.529L49.5234 17.7499L49.9097 18.4268L51.1033 17.7386L51.4309 18.3139C51.4983 18.4325 51.4534 18.5235 51.303 18.6107L50.334 19.1709L50.7215 19.846Z" fill="white"/>
<path d="M49.6476 16.928L50.2048 16.5183C50.4944 16.3049 50.5436 16.0038 50.3465 15.7334L49.9602 15.2013C49.8797 15.0903 49.9172 14.9918 50.0557 14.8901L50.354 14.6706C50.4962 14.5658 50.5942 14.5639 50.6753 14.6762L51.0622 15.2064L50.7358 15.4473L51.0297 15.8526L51.7173 15.3469L50.9474 14.2891C50.7508 14.0187 50.4444 13.9735 50.1555 14.1849L49.6345 14.5683C49.3456 14.781 49.2951 15.0884 49.4916 15.3594L49.8772 15.8877C49.9571 15.9994 49.9222 16.0948 49.7799 16.2002L49.4523 16.4411C49.3119 16.544 49.2077 16.5496 49.1272 16.4392L48.7042 15.8582L49.1004 15.5684L48.7946 15.1468L48.0415 15.7008L48.8602 16.8251C49.0573 17.0974 49.3618 17.1369 49.6476 16.928Z" fill="white"/>
<path d="M49.7386 13.4691L50.0594 13.1566L49.5458 12.6221L48.1987 13.9296C48.1007 14.0243 47.9934 14.146 47.8798 14.2947L48.7384 11.7807L48.1818 11.2016L47.8611 11.5147L48.0483 11.7092L46.4035 13.3066L46.2169 13.1115L45.8987 13.4201L46.4135 13.9559L47.7569 12.6497C47.8548 12.5549 47.9647 12.4313 48.0814 12.2795L47.2533 14.8305L47.589 15.1794L49.5514 13.2739L49.7386 13.4691ZM50.1679 11.9715L49.8216 11.612L49.1265 11.8246L49.4029 12.1126L50.1679 11.9715Z" fill="white"/>
<path d="M45.6903 13.2307L45.9699 12.8869L45.7771 12.7275L46.9483 10.142L46.3817 9.67642L44.0923 11.3434L43.9058 11.191L43.6262 11.5342L44.1061 11.9282L44.9228 11.2989L45.5986 11.8541L45.1556 12.789L45.6903 13.2307ZM45.7877 11.4608L45.2735 11.0391L46.4116 10.1758L45.7877 11.4608Z" fill="white"/>
<path d="M44.9582 9.11739L45.191 8.7353L44.5595 8.34756L43.5836 9.95372C43.5131 10.0704 43.4389 10.2153 43.3671 10.3873L43.5686 7.7371L42.886 7.31799L42.6533 7.70071L42.8835 7.84188L41.6911 9.80314L41.4615 9.66135L41.23 10.0409L41.8621 10.4293L42.8367 8.82627C42.9079 8.70895 42.9827 8.56088 43.0576 8.38333L42.8935 11.063L43.3059 11.3164L44.7274 8.97497L44.9582 9.11739Z" fill="white"/>
<path d="M40.817 9.8157L41.2301 8.91286L40.7821 8.70582L40.5525 9.20398L39.6146 8.76981L41.924 7.26404L42.0943 6.89387L40.2093 6.0199L39.7987 6.91646L40.2523 7.12601L40.4757 6.63789L41.3674 7.04947L39.0531 8.54458L38.8821 8.91976L40.817 9.8157Z" fill="white"/>
<path d="M38.1631 7.89459C38.1076 8.05897 38.0296 8.12673 37.9017 8.08281L37.3295 7.88706C37.2003 7.8444 37.1754 7.74088 37.2315 7.57587L37.7994 5.89317C37.8561 5.72565 37.9354 5.6673 38.0652 5.71122L38.6367 5.90697C38.7659 5.94964 38.7896 6.04437 38.7328 6.21126L38.1631 7.89459ZM38.6062 8.18194L39.2563 6.25895C39.3718 5.91827 39.237 5.63781 38.9206 5.5299L38.0677 5.23816C37.7519 5.12962 37.4749 5.27078 37.3601 5.61146L36.7099 7.53509C36.5957 7.87138 36.7299 8.15245 37.0462 8.26037L37.8992 8.55211C38.2162 8.6594 38.492 8.51949 38.6062 8.18194Z" fill="white"/>
<path d="M36.0323 5.82415C35.998 5.99481 35.9256 6.06633 35.7927 6.03935L35.1532 5.90885L35.3347 5.01166L35.9731 5.14216C36.1078 5.16977 36.1465 5.26012 36.1116 5.43328L36.0323 5.82415ZM36.524 5.94901L36.632 5.41195C36.7031 5.05935 36.5384 4.79897 36.2114 4.73247L34.6633 4.41751L34.5741 4.85607L34.8387 4.91065L34.3832 7.16241L34.1192 7.10845L34.0312 7.5445L35.0845 7.7597L35.1719 7.32365L34.8799 7.26405L35.0695 6.3242L35.779 6.47038C36.1528 6.54567 36.4423 6.35243 36.524 5.94901Z" fill="white"/>
<path d="M30.9034 5.81977L30.2401 5.81162L30.5958 4.42254L30.9034 5.81977ZM31.9217 7.26469L31.9273 6.81986L31.6784 6.81735L30.9945 4.0599L30.2625 4.05112L29.5032 6.78848L29.2623 6.78472L29.2573 7.23018L29.8763 7.23771L30.1265 6.23449L30.9982 6.24578L31.2303 7.2559L31.9217 7.26469Z" fill="white"/>
<path d="M28.9464 7.24083L28.8977 6.79914L28.63 6.82863L28.5452 6.06131C28.5065 5.70307 28.2656 5.50606 27.9343 5.5437L27.6192 5.57884L28.1277 4.57248L28.4953 4.5317L28.4453 4.08624L27.8226 4.15526L27.1356 5.67295L26.9796 4.24811L26.2078 4.33407L26.2564 4.78015L26.5247 4.75004L26.7743 7.03505L26.5073 7.06516L26.5547 7.50623L27.3272 7.42216L27.1762 6.04688L27.8314 5.9741C27.9674 5.95905 28.0323 6.0381 28.0516 6.21064L28.1733 7.32867L28.9464 7.24083Z" fill="white"/>
<path d="M26.1536 7.59531L26.0669 7.15801L25.7985 7.21196L25.3505 4.95832L25.6195 4.90437L25.5327 4.46393L24.5032 4.67097L24.5905 5.11016L24.8545 5.05871L25.3019 7.31172L25.0373 7.36505L25.1247 7.80047L26.1536 7.59531Z" fill="white"/>
<path d="M23.9458 5.24882L23.8148 4.81967L23.1072 5.03864L23.6582 6.83803C23.6981 6.96916 23.7587 7.11974 23.8385 7.28914L21.9972 5.38245L21.2322 5.61836L21.3638 6.0475L21.6209 5.9672L22.2929 8.16437L22.0359 8.24405L22.1656 8.6688L22.8732 8.45046L22.3241 6.65483C22.2836 6.52308 22.2237 6.36811 22.1413 6.19494L24.0295 8.09284L24.49 7.95042L23.6875 5.3285L23.9458 5.24882Z" fill="white"/>
<path d="M21.7383 8.84448L21.5511 8.44169L21.3071 8.5565L20.34 6.47101L20.584 6.35619L20.3955 5.94901L19.6917 6.27965L20.2782 7.5445L19.4221 7.94604L18.8349 6.68119L18.1311 7.01057L18.3202 7.41713L18.5648 7.30295L19.5326 9.38907L19.2886 9.50388L19.4751 9.90668L20.1777 9.57729L19.5925 8.31369L20.4486 7.91153L21.0351 9.17575L21.7383 8.84448Z" fill="white"/>
<path d="M19.0316 10.1451L18.5124 9.27991L18.1299 9.51205L18.4207 9.99578L17.7493 10.4036C17.6326 10.4751 17.5397 10.4274 17.4492 10.2787L16.5357 8.75728C16.4452 8.6067 16.4521 8.50757 16.5681 8.43668L17.2395 8.02886L17.5241 8.50193L17.9053 8.26979L17.3912 7.41275L16.2106 8.12987C15.9248 8.30367 15.8543 8.6067 16.039 8.91413L17.0829 10.6533C17.2657 10.9582 17.5652 11.0354 17.8516 10.8616L19.0316 10.1451Z" fill="white"/>
<path d="M16.9773 11.4463L16.3552 10.647L16.0008 10.9256L16.349 11.3754L15.5796 11.9796L14.9737 11.2004L15.7712 10.5717L15.5091 10.2348L14.7104 10.8616L14.1719 10.1689L14.917 9.58418L15.2477 10.0102L15.5958 9.73601L14.9906 8.95615L13.2859 10.295L13.5617 10.6489L13.7738 10.4826L15.1803 12.2933L14.9681 12.4602L15.2402 12.8103L16.9773 11.4463Z" fill="white"/>
<path d="M13.3659 11.4024L12.7407 10.7625L10.9873 12.4928L11.6125 13.1334L11.9482 12.8015L11.6356 12.4815L11.9944 12.1277L13.5968 13.7683L13.3865 13.9754L13.6966 14.2922L14.4828 13.5155L14.1721 13.198L13.9606 13.4076L12.3582 11.7694L12.7176 11.4143L13.0296 11.7337L13.3659 11.4024Z" fill="white"/>
<path d="M12.9903 15.0263L12.6527 14.739L12.4749 14.9479L10.7333 13.4591L10.9106 13.2489L10.5724 12.959L9.8916 13.7627L10.231 14.0538L10.4064 13.8468L12.1473 15.3363L11.9726 15.5427L12.3089 15.8306L12.9903 15.0263Z" fill="white"/>
<path d="M11.9893 16.2322L11.1082 15.6117L10.8455 15.9887L11.3647 16.3539L10.8805 17.0491L9.00792 15.7302L9.17577 15.4893L8.81199 15.2321L8.198 16.1123L8.56365 16.3696L8.71715 16.1475L10.5891 17.4663L10.435 17.6896L10.7969 17.9431L11.9893 16.2322Z" fill="white"/>
<path d="M9.66253 18.467C9.81478 18.5479 9.86844 18.637 9.8048 18.7587L9.52089 19.2939C9.45724 19.4163 9.35241 19.4238 9.19954 19.3422L7.63898 18.5078C7.48298 18.4243 7.43868 18.3365 7.50233 18.2154L7.78623 17.6796C7.8505 17.5591 7.94597 17.5497 8.10197 17.6332L9.66253 18.467ZM10.0157 18.0742L8.23238 17.1206C7.9154 16.9506 7.61839 17.0397 7.46239 17.3364L7.03871 18.1357C6.88272 18.4312 6.97569 18.7293 7.29205 18.8974L9.07599 19.8517C9.38798 20.0186 9.68562 19.9301 9.84224 19.6333L10.2659 18.8347C10.4213 18.5385 10.3283 18.2411 10.0157 18.0742Z" fill="white"/>
<path d="M7.21525 20.2921C7.37561 20.3549 7.43426 20.4377 7.38497 20.5669L7.14973 21.1768L6.3005 20.8461L6.53636 20.235C6.58503 20.1077 6.67987 20.0832 6.84523 20.1472L7.21525 20.2921ZM7.42116 19.8253L6.91262 19.6271C6.57941 19.4972 6.29613 19.617 6.1757 19.9289L5.60352 21.4108L6.01971 21.5727L6.11705 21.3204L8.24793 22.1511L8.15121 22.4052L8.56366 22.5652L8.95115 21.5582L8.53932 21.397L8.43262 21.6768L7.54283 21.3305L7.8049 20.6516C7.9428 20.2934 7.80303 19.9747 7.42116 19.8253Z" fill="white"/>
<path d="M53.5311 27.6685L53.0862 27.6936L53.1192 28.2827L54.4552 28.8286L53.1916 29.53L53.2284 30.1675L53.674 30.1411L53.6577 29.8707L54.9369 29.0758L55.8984 29.0199L55.9153 29.3111L56.3571 29.2847L56.2953 28.2031L55.8523 28.2288L55.8685 28.5118L54.8826 28.5682L53.5473 27.9383L53.5311 27.6685Z" fill="white"/>
<path d="M56.3902 30.719L54.5701 30.6424L54.5277 31.6576L54.9738 31.6751L54.9957 31.1487L55.9272 31.1883L55.8954 31.975C55.8892 32.1143 55.7987 32.167 55.6259 32.1589L53.8594 32.0867C53.6828 32.0786 53.6054 32.0196 53.6111 31.8815L53.6435 31.091L54.1645 31.1142L54.1839 30.6587L53.2167 30.6167L53.158 32.0108C53.1449 32.3465 53.3565 32.5736 53.714 32.5886L55.7332 32.6746C56.0864 32.6878 56.3172 32.4801 56.331 32.1457L56.3902 30.719Z" fill="white"/>
<path d="M55.4424 33.9244C55.6127 33.9545 55.6914 34.0191 55.6708 34.1552L55.5753 34.7544C55.5535 34.8893 55.4574 34.9313 55.2876 34.9025L53.5411 34.6208C53.367 34.5944 53.2959 34.526 53.3184 34.3912L53.4145 33.7913C53.4351 33.6558 53.5224 33.6176 53.6971 33.6452L55.4424 33.9244ZM55.6508 33.4413L53.6553 33.1181C53.3021 33.0592 53.0488 33.2405 52.997 33.5718L52.8541 34.4664C52.8005 34.799 52.9852 35.0499 53.339 35.107L55.3344 35.427C55.6832 35.4835 55.936 35.3047 55.989 34.9715L56.1313 34.0781C56.183 33.7455 55.9996 33.4958 55.6508 33.4413Z" fill="white"/>
<path d="M55.7537 36.1774L54.7129 35.9013L54.595 36.3455L55.2083 36.5099L54.9918 37.3324L52.7829 36.7433L52.8584 36.4584L52.4273 36.343L52.1521 37.3826L52.5845 37.4968L52.6525 37.2352L54.8627 37.8237L54.794 38.0859L55.2221 38.1989L55.7537 36.1774Z" fill="white"/>
<path d="M54.0884 39.2761C54.25 39.3389 54.3137 39.4186 54.2669 39.5491L54.0516 40.115C54.0036 40.2436 53.9006 40.2643 53.739 40.2034L52.0861 39.571C51.922 39.5095 51.8664 39.4273 51.9157 39.2987L52.1291 38.7322C52.1772 38.6042 52.2714 38.5829 52.4355 38.6462L54.0884 39.2761ZM54.3898 38.842L52.5004 38.1211C52.1666 37.9931 51.882 38.1186 51.7641 38.4317L51.4446 39.2793C51.3273 39.5949 51.4559 39.8759 51.7909 40.0046L53.6797 40.7254C54.011 40.8516 54.2943 40.7254 54.4129 40.4117L54.7324 39.566C54.8497 39.251 54.7205 38.9693 54.3898 38.842Z" fill="white"/>
<path d="M51.4476 40.4067L51.0558 40.1915L50.6995 40.8428L52.3405 41.7494C52.4603 41.8146 52.607 41.8818 52.7817 41.9458L50.1404 41.8667L49.7542 42.5706L50.1454 42.7871L50.2752 42.5499L52.2788 43.6561L52.149 43.8951L52.5371 44.1072L52.8927 43.4578L51.2561 42.5525C51.1356 42.4859 50.9859 42.4157 50.8055 42.3511L53.4768 42.3918L53.7077 41.9658L51.316 40.6458L51.4476 40.4067Z" fill="white"/>
<path d="M52.0593 44.8971L51.7048 44.6317L51.5445 44.8488L49.7062 43.4747L49.8666 43.2558L49.5072 42.9897L49.0461 43.6172L50.1605 44.4503L49.5971 45.2126L48.4814 44.3813L48.0203 45.005L48.3778 45.2735L48.5382 45.057L50.3758 46.4298L50.216 46.6463L50.5717 46.911L51.0328 46.2842L49.9203 45.4523L50.4837 44.6906L51.5975 45.522L52.0593 44.8971Z" fill="white"/>
<path d="M49.9957 47.5955L49.2519 46.9161L48.9524 47.2473L49.368 47.6263L48.8414 48.2123C48.7496 48.3127 48.6461 48.2945 48.5181 48.1778L47.2097 46.9838C47.0786 46.8634 47.0568 46.7667 47.1491 46.6657L47.6764 46.0835L48.0826 46.4549L48.3827 46.1236L47.6458 45.4504L46.718 46.4769C46.494 46.7247 46.5114 47.0353 46.7766 47.2756L48.2717 48.6433C48.5331 48.8817 48.8432 48.8717 49.0672 48.622L49.9957 47.5955Z" fill="white"/>
<path d="M48.0514 49.6327L47.3963 48.8622L47.0543 49.1552L47.4225 49.5875L46.6799 50.2256L46.0391 49.4746L46.8104 48.8127L46.5327 48.4877L45.7633 49.1483L45.1943 48.4795L45.9125 47.8622L46.2613 48.2737L46.5982 47.9839L45.958 47.2341L44.3145 48.6464L44.604 48.9884L44.8093 48.8121L46.295 50.5581L46.0897 50.7344L46.3773 51.072L48.0514 49.6327Z" fill="white"/>
<path d="M44.4972 49.6365L44.0005 48.8911L41.9583 50.2639L42.4543 51.0086L42.8455 50.7457L42.5978 50.3724L43.0159 50.0945L44.2857 52.0043L44.0417 52.1668L44.2869 52.5382L45.2029 51.9227L44.9571 51.5532L44.71 51.7176L43.4402 49.8071L43.8583 49.5273L44.106 49.9L44.4972 49.6365Z" fill="white"/>
<path d="M40.7933 52.0099L40.3958 51.1071L38.4802 51.9591L38.6606 52.3695L38.9064 52.2603L39.8311 54.3615L39.5847 54.4713L39.7644 54.8778L40.7527 54.438L40.5737 54.0314L40.2947 54.1557L39.9048 53.2679L40.8638 52.8406L40.6835 52.4303L39.7232 52.8576L39.3694 52.0532L40.1388 51.7126L40.3565 52.2057L40.7933 52.0099Z" fill="white"/>
<path d="M34.382 53.5772L34.3252 53.1324L33.7425 53.207L33.2938 54.5861L32.5107 53.3652L31.8799 53.4473L31.936 53.8909L32.2037 53.8577L33.081 55.0849L33.204 56.0454L32.9163 56.0812L32.9718 56.5241L34.0407 56.3861L33.9852 55.945L33.7063 55.9802L33.5808 54.9952L34.1137 53.6105L34.382 53.5772Z" fill="white"/>
<path d="M31.6015 54.3521L31.594 53.4549L29.1375 53.4749L29.1456 54.3715L29.6154 54.3677L29.6123 53.921L30.1146 53.916L30.1333 56.2142L29.8401 56.2161L29.8444 56.6609L30.9451 56.654L30.9414 56.2073L30.6437 56.2104L30.6256 53.9104L31.1279 53.9079L31.1311 54.3552L31.6015 54.3521Z" fill="white"/>
<path d="M28.4891 56.6145L28.5278 56.1709L28.2557 56.147L28.4548 53.8576L28.7281 53.8815L28.7668 53.4341L27.721 53.3419L27.6829 53.7893L27.9512 53.8125L27.751 56.1025L27.4833 56.078L27.4446 56.521L28.4891 56.6145Z" fill="white"/>
<path d="M26.6946 55.871L26.8213 55.1884C26.8868 54.8339 26.7171 54.5817 26.3895 54.5183L25.7455 54.4004C25.6107 54.3734 25.5721 54.2761 25.6026 54.1055L25.6706 53.7416C25.7031 53.5665 25.7736 53.4975 25.9078 53.5214L26.5523 53.6437L26.4774 54.0427L26.9673 54.1356L27.1239 53.293L25.8435 53.0527C25.5153 52.9893 25.2607 53.1694 25.1958 53.5226L25.076 54.1626C25.0105 54.5152 25.1833 54.7737 25.5115 54.8358L26.1517 54.9556C26.2865 54.9795 26.3258 55.0761 26.2934 55.2499L26.2191 55.6514C26.1867 55.8214 26.1155 55.8999 25.9814 55.8735L25.2788 55.7411L25.368 55.2568L24.8589 55.1608L24.6873 56.0824L26.0506 56.3397C26.3795 56.4005 26.6291 56.2236 26.6946 55.871Z" fill="white"/>
<path d="M24.1506 55.989L24.276 55.5623L24.0146 55.4839L24.1874 54.8941C24.286 54.5622 24.2286 54.3715 23.936 54.1952C24.2249 54.241 24.3946 54.1463 24.4695 53.8959L24.613 53.404C24.7153 53.0596 24.5724 52.7861 24.2517 52.6907L22.7361 52.239L22.61 52.67L22.869 52.7453L22.22 54.9512L21.9623 54.8728L21.8369 55.3019L22.5801 55.5215L22.9763 54.1758L23.6121 54.3659C23.7475 54.406 23.7681 54.5058 23.7188 54.672L23.3975 55.7643L24.1506 55.989ZM23.979 53.7635C23.9297 53.9298 23.8524 53.9932 23.7207 53.9549L23.0967 53.7698L23.3544 52.8915L23.979 53.0772C24.1107 53.1167 24.1419 53.2095 24.0926 53.3808L23.979 53.7635Z" fill="white"/>
<path d="M21.0863 55.0447L21.4844 54.113L21.0714 53.9342L20.8473 54.4575L19.9501 54.0685L20.3382 53.1581L21.2692 53.5609L21.4382 53.1669L20.506 52.7641L20.8523 51.9573L21.7209 52.3324L21.5081 52.83L21.9137 53.0057L22.3025 52.0972L20.3151 51.237L20.1391 51.6498L20.3868 51.7552L19.484 53.8683L19.2356 53.761L19.0615 54.1714L21.0863 55.0447Z" fill="white"/>
<path d="M19.7385 51.4792L19.9613 51.087L19.3716 50.7482L17.5646 52.6556L18.279 50.1208L17.6913 49.7833L17.4704 50.1748L17.7044 50.3078L16.9824 53.0521L17.5159 53.3608L19.5045 51.3437L19.7385 51.4792Z" fill="white"/>
<path d="M15.531 52.1417L15.7893 51.7797L15.5671 51.6197L16.8981 49.7532L17.1202 49.9119L17.3804 49.5467L16.5262 48.9319L16.2666 49.2977L16.4863 49.4558L15.1553 51.3229L14.9363 51.1654L14.678 51.5275L15.531 52.1417Z" fill="white"/>
<path d="M15.8872 49.0285L16.1798 48.6903L15.6214 48.2041L14.394 49.6245C14.3048 49.7287 14.2081 49.8586 14.1088 50.0167L14.7447 47.4362L14.1407 46.9098L13.848 47.2473L14.0514 47.4242L12.552 49.1603L12.348 48.9827L12.0591 49.3196L12.6169 49.8065L13.8424 48.3879C13.9323 48.2844 14.0308 48.152 14.1332 47.9895L13.5304 50.6045L13.8948 50.9214L15.6838 48.8522L15.8872 49.0285Z" fill="white"/>
<path d="M13.5274 46.9405L13.8618 46.6444L13.3701 46.0835L11.515 47.7241C11.3865 47.8408 11.2823 47.8565 11.1924 47.7536L10.7725 47.273C10.6814 47.1701 10.7132 47.0716 10.8443 46.9562L12.6981 45.3149L12.1821 44.7258L11.847 45.0232L12.0279 45.2296L10.4873 46.5948C10.1766 46.8696 10.151 47.2366 10.4062 47.5284L10.8717 48.0579C11.1294 48.3534 11.4957 48.3741 11.8064 48.0974L13.347 46.7347L13.5274 46.9405Z" fill="white"/>
<path d="M10.6778 43.4057L11.0647 43.1811L10.6928 42.5386L9.07293 43.4816C8.955 43.55 8.8221 43.6435 8.67671 43.7614L10.1087 41.5273L9.70627 40.8321L9.32128 41.0567L9.45605 41.2901L7.47992 42.4451L7.34452 42.2111L6.96265 42.4332L7.33454 43.0782L8.94939 42.1346C9.06732 42.0649 9.20397 41.9702 9.3531 41.851L7.94104 44.1297L8.18439 44.5488L10.543 43.1717L10.6778 43.4057Z" fill="white"/>
<path d="M7.57343 40.4011L7.31261 39.7862L8.71968 39.5528L7.57343 40.4011ZM6.67054 41.9213L7.07675 41.7475L6.97941 41.5179L9.21075 39.7749L8.92309 39.098L6.12643 39.5051L6.03159 39.2837L5.62476 39.4562L5.86811 40.029L6.88207 39.8527L7.22463 40.6602L6.39973 41.2813L6.67054 41.9213Z" fill="white"/>
<path d="M8.11182 38.2516L8.54049 38.1267L8.33271 37.4121L6.53503 37.9391C6.40462 37.978 6.253 38.0332 6.0839 38.1123L8.00762 36.2891L7.78299 35.518L7.35369 35.6422L7.42982 35.9019L5.23529 36.5469L5.16041 36.2865L4.73486 36.412L4.94265 37.1254L6.73595 36.5984C6.86699 36.5595 7.02236 36.5024 7.1952 36.4221L5.28147 38.2936L5.41624 38.7591L8.03507 37.9899L8.11182 38.2516Z" fill="white"/>
<path d="M4.5516 35.5707L5.5275 35.4144L5.45075 34.9244L4.91039 35.0104L4.74878 33.9852L7.2765 35.0794L7.67772 35.0167L7.35388 32.955L6.38547 33.1094L6.46284 33.6056L6.99072 33.5203L7.14422 34.4947L4.62336 33.3904L4.21777 33.4538L4.5516 35.5707Z" fill="white"/>
<path d="M4.80042 32.1281C4.62758 32.1381 4.53711 32.0892 4.53024 31.9518L4.50029 31.3457C4.49405 31.2096 4.57954 31.1481 4.75238 31.1393L6.51761 31.054C6.69357 31.0446 6.77718 31.0979 6.78404 31.234L6.81337 31.8389C6.82023 31.9775 6.74161 32.0327 6.56628 32.0409L4.80042 32.1281ZM4.69747 32.6482L6.71541 32.5497C7.07232 32.5303 7.2826 32.3031 7.26575 31.9669L7.22208 31.0628C7.20523 30.7265 6.97436 30.5207 6.61807 30.5376L4.59888 30.6374C4.24571 30.6549 4.03481 30.8833 4.05228 31.2184L4.09596 32.1224C4.11155 32.4581 4.3443 32.6658 4.69747 32.6482Z" fill="white"/>
<path d="M6.12213 29.4453C5.95054 29.4321 5.87005 29.3707 5.88003 29.2333L5.9312 28.5795L6.83908 28.651L6.78979 29.3029C6.77793 29.4403 6.6937 29.4911 6.51773 29.4779L6.12213 29.4453ZM6.05849 29.9516L6.6026 29.9937C6.95951 30.0213 7.196 29.8243 7.22158 29.4905L7.34325 27.9063L6.89836 27.8705L6.87777 28.1409L4.59838 27.9653L4.61835 27.6942L4.1772 27.6597L4.09546 28.737L4.53723 28.7715L4.55907 28.4728L5.51001 28.5469L5.45386 29.2722C5.42515 29.6555 5.64978 29.9196 6.05849 29.9516Z" fill="white"/>
<path d="M38.3821 54.613C38.4358 54.7793 38.414 54.8803 38.2848 54.9223L37.712 55.1131C37.5816 55.1557 37.5005 55.0892 37.4468 54.9242L36.8915 53.2371C36.8353 53.0677 36.864 52.9736 36.9944 52.931L37.5672 52.7409C37.6964 52.6988 37.7713 52.7572 37.8274 52.9259L38.3821 54.613ZM38.9063 54.5754L38.2723 52.6461C38.1588 52.3036 37.8836 52.1624 37.5679 52.2672L36.7124 52.5526C36.3954 52.6562 36.2588 52.936 36.3717 53.2792L37.005 55.2066C37.1167 55.5441 37.3919 55.6878 37.7095 55.5817L38.5643 55.2988C38.8819 55.1921 39.0186 54.9104 38.9063 54.5754Z" fill="white"/>
<path fill-rule="evenodd" clip-rule="evenodd" d="M47.3662 33.0755C47.5079 32.167 47.584 31.2541 47.584 30.3582C47.584 29.914 47.564 29.4635 47.526 28.9917L50.5198 28.0142L50.7494 27.9389L50.7189 27.6986C50.4468 25.5542 49.8434 23.4737 48.9256 21.513L48.8151 21.279L48.5711 21.36L45.6297 22.3211C44.9633 21.0312 44.144 19.836 43.1906 18.7581L45.027 16.214L45.1717 16.0132L45.0001 15.8369C43.4957 14.2885 41.7698 12.9916 39.871 11.9815L39.6483 11.8636L39.4992 12.0681L37.6734 14.5928C36.3475 13.9591 34.941 13.4973 33.4871 13.2194V10.0924V9.83892L33.2388 9.80253C32.2423 9.65572 31.2284 9.58105 30.2225 9.58105C29.095 9.58105 27.9556 9.67516 26.8356 9.85962L26.5916 9.89978V10.1489V13.2896C25.1789 13.5921 23.8062 14.0758 22.5008 14.7277L20.6819 12.2099L20.5309 12.0022L20.3056 12.1258C18.4206 13.1648 16.714 14.488 15.2321 16.0578L15.0661 16.2347L15.2078 16.4317L17.0566 18.9902C16.1575 20.0424 15.3862 21.1943 14.7622 22.4228L11.8252 21.4629L11.5793 21.3832L11.4708 21.6191C10.5648 23.581 9.97323 25.6665 9.71303 27.8147L9.68433 28.0544L9.9127 28.129L12.9115 29.109C12.8791 29.5539 12.8622 29.9661 12.8622 30.3569C12.8622 31.2152 12.9309 32.0886 13.0613 32.96L10.1192 33.92L9.87464 33.9984L9.92269 34.2538C10.3245 36.3807 11.0515 38.4197 12.0841 40.3183L12.2008 40.5316L12.4304 40.4575L15.4237 39.4782C16.0508 40.504 16.787 41.4683 17.6169 42.3504L15.7931 44.8782L15.6445 45.0846L15.8261 45.2603C17.3711 46.7692 19.1301 48.0215 21.0519 48.9808L21.2728 49.0919L21.4182 48.8917L23.2564 46.3445C24.3322 46.82 25.4516 47.1827 26.5916 47.428V50.5675V50.8166L26.8356 50.8574C27.9537 51.0419 29.0931 51.136 30.2225 51.136C31.2277 51.136 32.2417 51.0613 33.2388 50.9151L33.4871 50.8775V50.6265V47.4995C34.6627 47.2743 35.8121 46.9267 36.909 46.4674L38.7572 49.0229L38.9001 49.2218L39.1185 49.1157C41.056 48.1853 42.8343 46.9593 44.4005 45.4718L44.5877 45.2955L44.4367 45.0872L42.6184 42.5713C43.5076 41.6615 44.2938 40.6558 44.9602 39.5798L47.9578 40.5585L48.1868 40.6351L48.3028 40.4224C49.3467 38.5289 50.0862 36.4923 50.4992 34.3705L50.5485 34.1157L50.3039 34.0348L47.3662 33.0755ZM47.906 39.928L44.9265 38.953L44.7062 38.8821L44.5883 39.0798C43.8757 40.263 43.0165 41.3579 42.0356 42.336L41.8572 42.5129L42.0044 42.7143L43.8121 45.2183C42.3944 46.5296 40.8064 47.6256 39.083 48.4783L37.2447 45.9354L37.1068 45.7428L36.8928 45.8357C35.6991 46.3589 34.4387 46.7379 33.1452 46.9669L32.9037 47.007V47.2536V50.3661C32.0158 50.4847 31.1154 50.5481 30.2213 50.5481C29.2048 50.5481 28.1802 50.4678 27.1731 50.3109V47.1877V46.948L26.9379 46.8997C25.6843 46.6507 24.4532 46.251 23.2789 45.7127L23.0624 45.6148L22.922 45.8087L21.0925 48.3403C19.3828 47.4613 17.8122 46.342 16.4139 45.0106L18.2297 42.4985L18.3738 42.299L18.2022 42.1227C17.28 41.1684 16.4719 40.1106 15.8018 38.9781L15.6832 38.778L15.4605 38.8501L12.4835 39.8213C11.58 38.1154 10.9304 36.2928 10.5467 34.3962L13.4731 33.4406L13.7108 33.3628L13.6709 33.1156C13.5205 32.1946 13.4425 31.2661 13.4425 30.3569C13.4425 29.914 13.4644 29.4459 13.5074 28.9246L13.5261 28.6937L13.3059 28.6209L10.3227 27.6466C10.5791 25.7286 11.1064 23.8664 11.8932 22.1009L14.8153 23.0552L15.0555 23.1336L15.166 22.9059C15.823 21.5695 16.6541 20.3203 17.6425 19.1973L17.7973 19.021L17.66 18.8309L15.8224 16.2861C17.1627 14.8989 18.6883 13.7157 20.3618 12.7664L22.1713 15.2704L22.318 15.4749L22.5414 15.3588C23.9353 14.6354 25.4141 14.1147 26.936 13.811L27.1713 13.7652V13.5243V10.3998C28.1815 10.2461 29.2054 10.1639 30.2194 10.1639C31.1135 10.1639 32.0139 10.2279 32.9019 10.3471V13.4584V13.7044L33.1433 13.7477C34.7095 14.025 36.2227 14.5219 37.6366 15.2239L37.8575 15.3344L38.0016 15.1342L39.8174 12.6215C41.5027 13.5469 43.0446 14.7057 44.4061 16.0722L42.5791 18.6019L42.4393 18.7964L42.5997 18.9733C43.643 20.1183 44.524 21.4076 45.2241 22.8061L45.3352 23.0314L45.5736 22.9529L48.5 21.9974C49.2981 23.7604 49.8366 25.6194 50.1024 27.5317L47.1254 28.5048L46.9039 28.577L46.9245 28.8104C46.9738 29.3506 46.9981 29.8569 46.9981 30.3569C46.9981 31.3024 46.9151 32.2668 46.7516 33.2261L46.7092 33.4758L46.9482 33.5548L49.8728 34.5085C49.4803 36.4039 48.8189 38.224 47.906 39.928Z" fill="white"/>
<path fill-rule="evenodd" clip-rule="evenodd" d="M34.254 19.3065C33.7773 19.4144 33.3986 19.233 33.2513 19.0398C33.1034 18.8478 33.2944 18.2543 33.4572 18.2838C33.6207 18.3133 33.4722 18.4168 33.4279 18.6841C33.3842 18.9507 33.5465 19.0241 33.5465 19.0241C35.0652 17.8684 33.8846 17.5121 33.8846 17.5121C34.2977 17.024 34.0619 16.2968 34.0619 16.2968C33.1184 16.6074 33.1034 17.364 33.1034 17.364C32.8819 17.0089 32.2779 17.231 32.13 17.5723C31.9821 17.9124 32.0127 18.8623 32.0127 18.8623C32.6155 18.9953 32.4838 18.1953 32.7053 18.1658C32.9262 18.1363 33.0591 18.9068 32.0264 19.0994C30.9944 19.292 30.7292 18.6991 30.6119 18.3722C30.4933 18.0466 30.8765 17.7643 30.9644 18.2098C31.053 18.6546 31.4068 18.8171 31.4068 18.8171C31.2746 18.4915 31.8049 17.987 31.7606 17.4236C31.7163 16.8608 30.7579 17.157 30.7579 17.157C30.8796 16.8784 30.8328 16.591 30.7286 16.3401C30.6656 16.1914 30.5844 16.0565 30.5046 15.9429V15.4015H30.9382V14.8299H30.5046V14.4955H29.9386V14.8299H29.5056V15.4015H29.9386V15.9643C29.8637 16.0734 29.7882 16.2008 29.7283 16.3401C29.6241 16.591 29.5792 16.8784 29.6996 17.157C29.6996 17.157 28.7412 16.8608 28.6969 17.4236C28.6532 17.987 29.1842 18.4921 29.0513 18.8171C29.0513 18.8171 29.4051 18.6552 29.4937 18.2098C29.5823 17.7643 29.9648 18.0466 29.8469 18.3722C29.7283 18.6991 29.4632 19.2914 28.4311 19.0994C27.3997 18.9068 27.5332 18.1363 27.7535 18.1658C27.9743 18.1953 27.8421 18.9953 28.4467 18.8623C28.4467 18.8623 28.4754 17.9124 28.3275 17.5723C28.1803 17.231 27.575 17.0095 27.3541 17.364C27.3541 17.364 27.3404 16.6074 26.3963 16.2968C26.3963 16.2968 26.1604 17.024 26.5729 17.5121C26.5729 17.5121 25.3936 17.8684 26.913 19.0241C26.913 19.0241 27.0746 18.9501 27.0303 18.6841C26.9866 18.4168 26.84 18.3133 27.0016 18.2838C27.1632 18.2543 27.3547 18.8478 27.2075 19.0398C27.0608 19.233 26.6815 19.4144 26.2048 19.3065C25.154 19.0693 25.9358 17.3935 24.5537 17.231C24.5537 17.231 25.2894 19.021 26.1717 20.0926H34.2877C35.17 19.021 35.9051 17.231 35.9051 17.231C34.523 17.3935 35.3029 19.0687 34.254 19.3065Z" fill="white"/>
<path fill-rule="evenodd" clip-rule="evenodd" d="M33.2082 24.8119C33.0454 24.7925 32.7789 24.7147 32.7053 24.5974C32.764 24.4706 32.8476 24.2241 32.8476 23.9367C32.8476 23.7786 32.8214 23.6105 32.7446 23.4505C32.6841 23.2792 32.5662 23.1556 32.4021 23.0872C32.2816 23.0188 32.15 22.9843 32.0115 22.9843C31.5622 22.9843 31.1959 23.3538 31.1959 23.8037C31.1959 24.1067 31.3663 24.3778 31.629 24.5208C31.6283 24.5258 31.6283 24.5258 31.6265 24.529C31.5597 24.534 31.3319 24.5534 31.3319 24.5534L31.3182 24.5999C31.3163 24.6061 31.3064 24.6375 31.3064 24.6808C31.3064 24.7216 31.3151 24.7693 31.3432 24.8182C31.3594 24.8433 31.39 24.869 31.4312 24.8916C31.4168 24.9111 31.4149 24.9173 31.4074 24.9311C31.3494 24.9318 31.0824 24.9462 31.0824 24.9462L31.078 25.0089C31.078 25.0146 31.078 25.0215 31.078 25.0309C31.078 25.0968 31.0973 25.1865 31.161 25.2473C31.1522 25.2612 31.1466 25.2655 31.1385 25.2737C31.0873 25.2737 30.9045 25.2737 30.9026 25.2737C30.9026 25.2737 30.7903 25.2524 30.7392 25.2442C30.708 25.2072 30.5102 24.9663 30.4883 24.9405C30.434 24.7323 30.4135 24.571 30.4135 24.4562C30.4135 24.2103 30.4971 24.1463 30.4971 24.1437C30.7061 24.0634 30.7548 23.985 30.7629 23.9367C30.7941 23.874 30.8147 23.8081 30.8147 23.7479C30.8147 23.6977 30.8009 23.6456 30.7791 23.5973C30.7598 23.5534 30.7323 23.5138 30.6986 23.4793V23.4774C30.5757 23.3482 30.3954 23.2704 30.2706 23.2698C30.2188 23.2698 30.152 23.2792 30.137 23.3369C30.1264 23.3676 30.0971 23.389 30.0622 23.3846C30.0297 23.3821 30.001 23.3576 29.9979 23.3225C29.996 23.3156 29.9804 23.2051 29.8868 23.0916C29.8725 23.0815 29.8612 23.0671 29.8456 23.0583C29.6834 22.9724 29.4644 22.9918 29.2997 23.1041C29.1249 23.2246 29.0426 23.4316 29.0694 23.6726L29.0869 23.8175L29.1911 23.7133C29.3259 23.5772 29.6466 23.8194 29.777 23.9361C29.7708 23.9982 29.7358 24.6306 29.7352 24.6777C29.5299 24.886 29.3096 25.1645 29.2466 25.2436C29.2067 25.2492 29.0719 25.275 29.0719 25.275C29.0719 25.275 28.8984 25.2731 28.8479 25.2731C28.8367 25.2643 28.8348 25.2599 28.8248 25.2467C28.8885 25.1859 28.9078 25.0968 28.9078 25.0303C28.9078 25.0209 28.9078 25.014 28.9072 25.0083L28.9016 24.9456C28.9016 24.9456 28.6364 24.9311 28.579 24.9305C28.5702 24.9167 28.5646 24.9104 28.554 24.891C28.5946 24.8684 28.6258 24.8427 28.642 24.8176C28.6688 24.7686 28.6769 24.721 28.6769 24.6802C28.6769 24.6369 28.6688 24.6055 28.6663 24.5992L28.6532 24.5528C28.6532 24.5528 28.4242 24.534 28.3562 24.5283C28.3556 24.5252 28.3556 24.5252 28.3537 24.5202C28.6176 24.3771 28.788 24.1061 28.788 23.8031C28.788 23.3532 28.423 22.9837 27.9706 22.9837C27.8339 22.9837 27.7004 23.0182 27.5756 23.091C27.4159 23.155 27.3011 23.2779 27.2324 23.4592C27.1613 23.613 27.1351 23.7786 27.1351 23.9348C27.1351 24.2203 27.2199 24.47 27.2786 24.5967C27.2043 24.7141 26.936 24.7925 26.7744 24.8113L26.6958 24.8213L26.7145 24.9016C26.7888 25.2091 27.0396 25.3208 27.4377 25.226C27.5014 25.2091 27.5625 25.1739 27.6193 25.1256C27.6524 25.1708 27.6761 25.2059 27.6942 25.2285C27.6892 25.2768 27.6286 25.9061 27.6286 25.9061C27.6068 26.0548 27.2636 26.1452 27.0983 26.1665L27.0184 26.1778L27.0371 26.2543C27.1139 26.5643 27.3672 26.676 27.7603 26.5818C27.9824 26.5279 28.1465 26.2976 28.2545 25.9155C28.2632 25.93 28.2695 25.935 28.2751 25.9419C28.2632 26.0824 28.2033 26.8617 28.1709 27.0838C28.1515 27.2318 27.8046 27.3253 27.6417 27.3466L27.5619 27.3561L27.5806 27.4351C27.6586 27.7407 27.9057 27.8555 28.3044 27.7595C28.7493 27.6534 28.8722 26.873 28.9041 26.563C28.9041 26.6364 28.9041 27.5035 28.9041 27.5035C28.9041 27.5035 28.9814 27.5142 28.9952 27.5154C28.9952 27.5242 28.9939 27.5292 28.9939 27.5386C28.9939 27.5537 28.9952 27.5719 28.9976 27.5882C28.8772 27.8479 28.7368 28.1667 28.6713 28.3097C28.2426 28.2426 27.867 28.4666 27.8508 28.4791L28.0111 28.7458C28.0136 28.7451 28.1428 28.6686 28.32 28.6297C28.2171 28.7301 28.126 28.848 28.0923 28.9697L28.3918 29.0532C28.4286 28.9208 28.6757 28.72 28.8423 28.6253C28.8554 28.6134 28.8697 28.6046 28.8803 28.5908C28.9627 28.5682 29.2135 28.5588 29.4507 28.5682L29.4656 28.2545C29.2847 28.247 29.1468 28.2501 29.0407 28.2545L29.2997 27.6804C29.3021 27.676 29.3096 27.6735 29.3134 27.671C29.3465 27.6911 29.4201 27.735 29.4201 27.735C29.4201 27.735 29.5923 27.671 29.6566 27.6465C29.6765 27.6886 29.7084 27.7858 29.7084 28.0148C29.7084 28.1215 29.7002 28.2545 29.684 28.422C29.6628 28.6165 29.5892 28.7608 29.4656 28.8549C29.2123 29.0337 28.8317 28.9515 28.8273 28.9503L28.69 28.9239L28.7462 29.0507C28.8597 29.3161 29.0195 29.4729 29.2129 29.5112C29.3964 29.5476 29.5655 29.4754 29.684 29.4008C29.6809 29.4397 29.6753 29.4767 29.6753 29.5118C29.6753 29.8883 29.9224 30.1737 29.9355 30.1882L29.9873 30.2478L30.0391 30.1888C30.0553 30.175 30.3074 29.8864 30.3074 29.5087C30.3074 29.4742 30.303 29.4365 30.2961 29.4008C30.4159 29.4754 30.5869 29.5476 30.7691 29.5112C30.965 29.4723 31.1204 29.3154 31.2371 29.0507L31.2908 28.9239L31.1554 28.9503C31.1529 28.9515 30.7704 29.0337 30.5195 28.8549C30.3929 28.7608 30.3161 28.6165 30.2986 28.422C30.2818 28.2545 30.2737 28.1215 30.2737 28.0148C30.2737 27.7858 30.3055 27.6886 30.3236 27.6465C30.3904 27.671 30.5638 27.735 30.5638 27.735C30.5638 27.735 30.6044 27.7105 30.6387 27.6892L30.9108 28.2545C30.8059 28.2501 30.6699 28.247 30.4958 28.2545L30.5089 28.5682C30.7573 28.5582 31.0225 28.5688 31.0911 28.5927C31.0992 28.6046 31.1079 28.6171 31.1173 28.6253C31.2833 28.72 31.5329 28.9208 31.5691 29.0532L31.8717 28.9697C31.8374 28.8474 31.7438 28.7301 31.6421 28.6297C31.8155 28.6686 31.9453 28.7451 31.9491 28.7458L32.1107 28.4791C32.0932 28.4659 31.7144 28.2407 31.2851 28.311C31.2227 28.1811 31.088 27.9032 30.9694 27.6566C30.9838 27.6202 30.9881 27.5794 30.9881 27.5386C30.9881 27.5292 30.9881 27.5242 30.9881 27.5154C30.9994 27.5148 31.0767 27.5035 31.0767 27.5035C31.0767 27.5035 31.0767 26.6364 31.0767 26.563C31.1111 26.873 31.2327 27.6534 31.6789 27.7595C32.0726 27.8555 32.3222 27.7407 32.4014 27.4351L32.4214 27.3561L32.3397 27.3466C32.1762 27.3253 31.833 27.2318 31.8105 27.0838C31.78 26.8617 31.7201 26.0824 31.7063 25.9419C31.7113 25.9356 31.7207 25.93 31.7275 25.9155C31.8374 26.2983 32.0008 26.5285 32.2192 26.5818C32.6173 26.6753 32.8682 26.5643 32.9455 26.2543L32.9661 26.1778L32.8856 26.1665C32.7215 26.1452 32.3777 26.0554 32.3546 25.9061C32.3546 25.9061 32.3029 25.3528 32.2897 25.2285C32.3047 25.2059 32.3322 25.1708 32.364 25.1256C32.422 25.1746 32.4813 25.2091 32.5462 25.226C32.9443 25.3208 33.192 25.2091 33.2694 24.9016L33.29 24.8213L33.2082 24.8119ZM31.0742 28.5739C31.0742 28.5739 31.0742 28.5739 31.0749 28.5751L31.0742 28.5739ZM30.8534 23.4404L30.9426 23.4919L31.0998 23.2196L30.9126 23.1092L31.0231 22.9216L30.7548 22.7647L30.6456 22.9498L30.4584 22.8394L30.2999 23.111L30.3361 23.133C30.5214 23.1587 30.7286 23.2717 30.8534 23.4404Z" fill="white"/>
<path fill-rule="evenodd" clip-rule="evenodd" d="M25.1134 28.7313C25.2376 29.1454 25.383 29.6379 25.3961 29.6787C25.4273 29.7126 25.7986 30.1455 26.0026 30.3839L26.1717 30.3475L26.2304 29.6097C26.133 29.5344 25.5097 29.0432 25.1134 28.7313ZM24.6704 29.4717C24.6704 29.4409 24.6461 29.4177 24.6161 29.4177C24.5893 29.4177 24.5656 29.4409 24.5656 29.4717C24.5656 29.498 24.5893 29.5206 24.6161 29.5206C24.6461 29.52 24.6704 29.4974 24.6704 29.4717ZM22.8759 27.7727L21.6279 26.76L21.0645 26.6747L21.3022 27.218L22.5214 28.242L22.8759 27.7727ZM23.6059 29.6637C23.6059 29.6637 24.1488 29.355 24.2174 29.3154C24.2474 29.2634 24.331 29.1134 24.3553 29.0676C24.3553 29.0325 24.3572 28.9766 24.3609 28.8976C24.2417 28.8662 24.1001 28.8323 23.9909 28.8029C23.9017 28.9478 23.5841 29.4717 23.5841 29.4717L22.7573 29.6455L22.6937 29.3362C22.6937 29.3362 22.8771 29.2998 23.0599 29.2615L23.0531 29.2571L23.3438 28.9196L22.532 28.2482L21.9193 29.0613L22.6107 30.3657C22.9214 30.1455 23.5941 29.6687 23.6059 29.6637ZM24.7278 28.535L24.9612 28.2118L26.09 29.1002L25.6238 27.8963L24.7571 27.6817C25.3768 27.4025 25.811 26.7795 25.811 26.0523C25.811 25.0667 25.0167 24.268 24.0358 24.268C23.0581 24.268 22.2606 25.066 22.2606 26.0523C22.2606 26.7795 22.6955 27.4025 23.3158 27.6817L22.9938 27.6359L22.8883 27.7777L23.7438 28.4546L24.0165 28.1359L24.253 28.3373L24.1076 28.508L24.6816 28.6548L24.6654 29.1103C24.8426 29.1348 24.9824 29.2853 24.9824 29.471C24.9824 29.6693 24.8183 29.8362 24.6161 29.8362C24.477 29.8362 24.3559 29.7527 24.2942 29.6323C24.1113 29.7346 23.7706 29.9284 23.7706 29.9284C23.7688 29.9284 22.7947 30.6186 22.6525 30.7202L22.6132 31.2585L22.3917 34.0674H25.7312L25.8067 31.5421L25.8298 30.6606L25.1172 29.8337L24.7278 28.535ZM24.3678 26.2732C24.4695 26.1 24.5637 25.8785 24.5643 25.8089C24.5643 25.5736 24.3553 25.386 24.0982 25.386C23.8399 25.386 23.6302 25.5742 23.6302 25.8089H23.0643C23.0643 25.2618 23.5267 24.8176 24.0989 24.8176C24.671 24.8176 25.134 25.2618 25.134 25.8089C25.134 26.0762 24.9212 26.457 24.8564 26.5668L24.3678 26.2732Z" fill="white"/>
<path fill-rule="evenodd" clip-rule="evenodd" d="M35.1364 29.7778C35.1382 29.9359 35.1426 30.1355 35.1439 30.2923C35.2992 30.2904 35.497 30.2879 35.6549 30.286C35.653 30.1298 35.6505 29.9297 35.6505 29.7728C35.4895 29.7753 35.2949 29.7753 35.1364 29.7778ZM37.7564 28.1849L38.0628 28.4829L38.7192 27.8147L38.4147 27.5154L38.0859 27.4966L38.2637 27.3084L38.0247 27.0718L37.213 27.9577L37.1225 27.8718C37.0008 27.8228 36.5004 27.6233 36.4498 27.602C36.3899 27.6045 35.5332 27.6352 35.5008 27.6365C35.4727 27.6465 34.9386 27.7934 34.7857 27.8341C34.7645 28.0086 34.7458 28.1899 34.7458 28.1949L34.4144 30.4278L34.4175 30.9693L34.4506 34.1088H37.8101L37.5368 30.9009L37.4781 30.0922L36.5859 30.0087L35.96 29.7734L35.97 30.6004L34.8325 30.6073L34.8231 29.4685L35.6524 29.4591L35.4683 29.0864L35.975 28.7633L36.0536 28.7144C36.0536 28.7144 36.179 28.7796 36.3282 28.8599L37.2117 27.9571L37.4326 28.1792L36.6214 29.0074C36.7157 29.0557 36.7968 29.0965 36.8311 29.1153C36.9091 29.0714 37.0407 28.9992 37.0407 28.9992L37.1899 29.2765L36.8348 29.471C36.8348 29.471 36.1959 29.1404 36.0673 29.0751C36.0074 29.1153 35.9556 29.1492 35.872 29.2C35.9238 29.3048 35.9687 29.3939 35.9956 29.4516C36.0929 29.4867 36.6245 29.6843 36.657 29.6938C36.6813 29.6988 37.1481 29.7433 37.5181 29.7778L37.9917 29.7389L37.6448 28.3793L37.4351 28.1748L37.7352 27.863L37.7564 28.1849ZM34.8038 27.4276C34.8106 27.4401 34.8119 27.4564 34.8125 27.4721C34.8244 27.479 34.8337 27.484 34.8425 27.4935L35.4533 27.3241L36.4729 27.287L36.5047 27.2839L36.954 27.4646C37.3814 27.1408 37.6585 26.6295 37.6585 26.0517C37.6585 25.066 36.8629 24.2673 35.8845 24.2673C34.9017 24.2673 34.1087 25.0654 34.1087 26.0517C34.1087 26.0994 34.1137 26.1433 34.1162 26.1891L34.8038 27.4276ZM35.975 24.8176C36.5447 24.8176 37.0102 25.2618 37.0102 25.8089C37.0102 26.0761 36.7974 26.457 36.7312 26.5668L36.2433 26.2731C36.3469 26.1 36.4417 25.8785 36.4417 25.8089C36.4417 25.5736 36.2327 25.386 35.9744 25.386C35.7173 25.386 35.507 25.5742 35.507 25.8089H34.9386C34.9398 25.2618 35.4041 24.8176 35.975 24.8176ZM34.4949 27.6277L34.4681 27.4646C34.3633 27.2783 34.0781 26.7669 33.8803 26.408V28.0293L33.4922 29.0262L33.5327 29.9422L34.1623 30.0075C34.2591 29.3487 34.4331 28.1478 34.4331 28.1529C34.4344 28.1535 34.4756 27.8028 34.4949 27.6277Z" fill="white"/>
<path fill-rule="evenodd" clip-rule="evenodd" d="M29.8432 39.1532V39.3728H29.6254V39.6852H29.8432V39.9023H30.1546V39.6852H30.3711V39.3728H30.1546V39.1532H29.8432ZM31.5317 39.7059L31.3214 39.7116L31.4874 39.5114L31.2446 39.3113L29.9942 40.8327L28.7419 39.3113L28.501 39.5114L28.6676 39.7116L28.4274 39.7059L28.4068 39.7222L28.0992 39.9744L28.6957 40.6985L29.0245 40.4299L29.062 40.1909L29.7914 41.0755L29.1543 41.8479L28.0293 41.9596L28.1578 43.3028L29.5 43.1767L29.3902 42.0505L29.9942 41.3202L30.5963 42.0505L30.4878 43.1767L31.8293 43.3028L31.9585 41.9596L30.8328 41.8479L30.1957 41.0762L30.9252 40.1903L30.9639 40.4299L31.2896 40.6985L31.8886 39.9744L31.5604 39.7053L31.5317 39.7059ZM29.0876 42.1722C29.1069 42.3554 29.1412 42.7093 29.1568 42.8931C28.974 42.9113 28.6233 42.9471 28.4392 42.9621C28.4212 42.7752 28.3893 42.4257 28.3694 42.2419C28.5547 42.2243 28.9035 42.1873 29.0876 42.1722ZM30.899 42.1722C31.0812 42.1873 31.4318 42.2243 31.6184 42.2406C31.5991 42.4257 31.5647 42.7758 31.546 42.9621C31.3638 42.9471 31.0113 42.9113 30.8278 42.8931C30.8447 42.7093 30.8809 42.3554 30.899 42.1722Z" fill="white"/>
<path fill-rule="evenodd" clip-rule="evenodd" d="M40.5824 20.6623H19.5669V34.5587C19.5669 39.8778 24.4439 44.3713 30.2169 44.3713C32.9025 44.3713 35.5993 43.3273 37.6216 41.5059C39.7132 39.62 40.8676 37.1511 40.8676 34.5593V20.6623H40.5824ZM36.9958 36.3957C36.9958 36.6222 36.9958 37.1668 36.9958 37.1668H35.3997C35.3997 37.1668 35.3997 36.6228 35.3997 36.3957C35.1232 36.3957 34.7925 36.3957 34.5167 36.3957C34.5167 36.6222 34.5167 37.1668 34.5167 37.1668H32.9169C32.9169 37.1668 32.9169 36.6228 32.9169 36.3957C32.6392 36.3957 32.3135 36.3957 32.0327 36.3957C32.0327 36.6222 32.0327 37.1668 32.0327 37.1668H30.4366C30.4366 37.1668 30.4366 36.6228 30.4366 36.3957C30.1583 36.3957 29.8282 36.3957 29.5505 36.3957C29.5505 36.6222 29.5505 37.1668 29.5505 37.1668H27.9519C27.9519 37.1668 27.9519 36.6228 27.9519 36.3957C27.6736 36.3957 27.3466 36.3957 27.0671 36.3957C27.0671 36.6222 27.0671 37.1668 27.0671 37.1668H25.471C25.471 37.1668 25.471 36.6228 25.471 36.3957C25.1933 36.3957 24.8645 36.3957 24.5868 36.3957C24.5868 36.6222 24.5868 37.1668 24.5868 37.1668H22.9875C22.9875 37.1668 22.9875 36.6228 22.9875 36.3957C22.7024 36.3957 22.1059 36.3957 21.8182 36.3957V37.3431H22.2662V40.162C20.9371 38.5948 20.1341 36.6461 20.1341 34.5587C20.1341 34.5587 20.1341 21.7828 20.1341 21.2339C20.6788 21.2339 39.7538 21.2339 40.2979 21.2339C40.2979 21.7828 40.2979 34.5587 40.2979 34.5587C40.2979 36.7841 39.3869 38.9135 37.719 40.6207V37.3425H38.1658V36.3951C37.88 36.3957 37.2859 36.3957 36.9958 36.3957ZM25.8173 42.8392C25.8166 42.821 25.816 42.8015 25.816 42.784C25.816 42.0311 25.997 41.3234 26.3102 40.701C27.0128 39.3081 28.3962 38.3614 29.9942 38.3614C31.6645 38.3614 33.1041 39.4035 33.773 40.9118C34.0226 41.4802 34.1686 42.1133 34.1686 42.784C34.1686 42.8605 34.1679 42.9333 34.1636 43.0092C32.9081 43.5224 31.5603 43.8004 30.2163 43.8004C28.6514 43.8004 27.1551 43.4509 25.8173 42.8392ZM28.5197 36.5971C28.7057 36.5971 28.7961 36.5971 28.9821 36.5971C28.9821 36.3675 28.9821 35.826 28.9821 35.826H31.0025C31.0025 35.826 31.0025 36.3675 31.0025 36.5971C31.1878 36.5971 31.2808 36.5971 31.4655 36.5971C31.4655 36.3675 31.4655 35.826 31.4655 35.826H32.1332V32.8139L32.7403 32.0284V30.7428H31.8549V31.5114H31.2072V30.7428H30.3199V31.5114H29.6766V30.7428H28.7905V31.5114H28.1434V30.7428H27.258V32.0284L27.8645 32.8139V35.826H28.521C28.5197 35.8254 28.5197 36.3675 28.5197 36.5971ZM35.9669 36.5971C36.1503 36.5971 36.2439 36.5971 36.4299 36.5971C36.4299 36.3675 36.4299 35.826 36.4299 35.826H36.7131H37.7196V34.5593H34.3582V35.826H35.9669C35.9669 35.826 35.9669 36.3675 35.9669 36.5971ZM23.556 36.5971C23.7413 36.5971 23.8324 36.5971 24.0171 36.5971C24.0171 36.3675 24.0171 35.826 24.0171 35.826H25.6263V34.5593H22.2668V35.826H23.556C23.556 35.826 23.556 36.3675 23.556 36.5971Z" fill="white"/>
<path fill-rule="evenodd" clip-rule="evenodd" d="M1.92833 30.3595C1.92833 14.6756 14.6194 1.91417 30.2163 1.91417C45.8144 1.91417 58.5049 14.6756 58.5049 30.3595C58.5049 46.044 45.8138 58.8029 30.2163 58.8029C14.6194 58.8029 1.92833 46.0433 1.92833 30.3595ZM1.36426 30.3595C1.36426 46.3564 14.308 59.3694 30.2169 59.3694C46.1264 59.3694 59.0696 46.3564 59.0696 30.3595C59.0696 14.3619 46.1264 1.34763 30.2169 1.34763C14.3074 1.34763 1.36426 14.3619 1.36426 30.3595Z" fill="white"/>
<path d="M79.9092 28.4465C79.9092 29.1987 79.6995 29.7942 79.2802 30.2327C78.8615 30.6713 78.2943 30.8902 77.5799 30.8902H74.8949V34.4451H76V36.104H72.0046V34.4451H73.008V25.9005H72.0046V24.2422H77.8688C78.4921 24.2422 78.9876 24.4355 79.3563 24.8232C79.7238 25.2103 79.9092 25.7348 79.9092 26.3955V28.4465ZM78.0216 28.3442V26.856C78.0216 26.2186 77.7839 25.9005 77.3078 25.9005H74.8949V29.318H77.3078C77.7839 29.318 78.0216 28.9936 78.0216 28.3442Z" fill="white"/>
<path d="M89.3761 33.9501C89.3761 34.6101 89.1895 35.1353 88.8157 35.5217C88.4413 35.9101 87.9428 36.104 87.3194 36.104H83.9712C83.3472 36.104 82.8524 35.9101 82.4842 35.5217C82.1161 35.1353 81.9314 34.6101 81.9314 33.9501V26.3955C81.9314 25.7348 82.1161 25.2103 82.4842 24.8232C82.8524 24.4355 83.3478 24.2422 83.9712 24.2422H87.3194C87.9428 24.2422 88.4413 24.4355 88.8157 24.8232C89.1895 25.2103 89.3761 25.7348 89.3761 26.3955V33.9501ZM87.4898 33.4707V26.856C87.4898 26.2186 87.2558 25.9005 86.789 25.9005H84.5352C84.0573 25.9005 83.8183 26.2192 83.8183 26.856V33.4707C83.8183 34.1201 84.0573 34.4451 84.5352 34.4451H86.789C87.2558 34.4451 87.4898 34.1207 87.4898 33.4707Z" fill="white"/>
<path d="M98.9455 36.104H91.2288V34.4451H92.2315V25.9005H91.2288V24.2422H95.2066V25.9005H94.1184V34.4451H97.2451V32.0698H98.9455V36.104Z" fill="white"/>
<path d="M104.351 36.104H100.458V34.4451H101.461V25.9005H100.458V24.2422H104.351V25.9005H103.348V34.4451H104.351V36.104Z" fill="white"/>
<path d="M115.076 27.575H113.342V25.9005H111.472V34.4451H112.577V36.104H108.481V34.4451H109.585V25.9005H107.699V27.575H105.965V24.2422H115.076L115.076 27.575Z" fill="white"/>
<path d="M124.9 36.104H116.707V34.4451H117.71V25.9005H116.707V24.2422H124.748V27.917H123.098V25.9005H119.597V29.1812H123.354V30.771H119.597V34.4445H123.218V32.3251H124.9V36.104Z" fill="white"/>
<path d="M134.113 36.104H128.979C128.356 36.104 127.86 35.9101 127.492 35.5217C127.123 35.1353 126.939 34.6101 126.939 33.9501V26.3955C126.939 25.7348 127.123 25.2103 127.492 24.8232C127.859 24.4355 128.356 24.2422 128.979 24.2422H134.113V27.969H132.447V25.9005H129.541C129.065 25.9005 128.827 26.2192 128.827 26.856V33.4707C128.827 34.1201 129.065 34.4451 129.541 34.4451H132.447V32.3433H134.113V36.104Z" fill="white"/>
<path d="M145.075 36.104H142.186V30.9247H138.685V36.104H135.795V34.4451H136.798V25.9005H135.795V24.2422H138.685V29.4202H142.186V24.2422H145.075V25.9005H144.072V34.4451H145.075V36.104Z" fill="white"/>
<path d="M156.718 25.9005H155.7V36.104H153.902L149.275 27.2845C149.375 27.9791 149.427 28.5895 149.427 29.1134V36.104H146.673V34.4451H147.693V25.9005H146.673V24.2422H149.647L154.117 33.0447C154.016 32.3377 153.966 31.7341 153.966 31.2328V24.2422H156.718V25.9005Z" fill="white"/>
<path d="M162.192 36.104H158.3V34.4451H159.301V25.9005H158.3V24.2422H162.192V25.9005H161.19V34.4451H162.192V36.104Z" fill="white"/>
<path d="M172.731 36.104H169.84V31.9324C169.84 31.2855 169.603 30.9592 169.126 30.9592H166.679V36.104H163.79V34.4451H164.792V25.9005H163.79V24.2422H166.679V29.5746L169.823 24.2422H172.151V25.9005H170.774L168.497 29.4202H169.671C170.293 29.4202 170.792 29.6153 171.165 30.0018C171.539 30.3896 171.727 30.9134 171.727 31.5735V34.4445H172.73V36.104H172.731Z" fill="white"/>
<path d="M184.118 36.104H181.551L180.633 32.3615H177.404L176.52 36.104H174.208V34.4451H175.11L177.794 24.2422H180.514L183.2 34.4451H184.118V36.104ZM180.26 30.7873L179.052 25.61L177.794 30.7873H180.26Z" fill="white"/>
<path d="M198.43 28.4465C198.43 29.1987 198.219 29.7942 197.799 30.2327C197.381 30.6713 196.814 30.8902 196.1 30.8902H193.413V34.4451H194.518V36.104H190.525V34.4451H191.527V25.9005H190.525V24.2422H196.388C197.01 24.2422 197.507 24.4355 197.876 24.8232C198.245 25.2103 198.429 25.7348 198.429 26.3955V28.4465H198.43ZM196.543 28.3442V26.856C196.543 26.2186 196.305 25.9005 195.83 25.9005H193.414V29.318H195.83C196.305 29.318 196.543 28.9936 196.543 28.3442Z" fill="white"/>
<path d="M207.898 33.9501C207.898 34.6101 207.711 35.1353 207.336 35.5217C206.963 35.9101 206.464 36.104 205.841 36.104H202.492C201.868 36.104 201.372 35.9101 201.005 35.5217C200.636 35.1353 200.452 34.6101 200.452 33.9501V26.3955C200.452 25.7348 200.636 25.2103 201.005 24.8232C201.372 24.4355 201.868 24.2422 202.492 24.2422H205.841C206.463 24.2422 206.963 24.4355 207.336 24.8232C207.711 25.2103 207.898 25.7348 207.898 26.3955V33.9501ZM206.01 33.4707V26.856C206.01 26.2186 205.776 25.9005 205.311 25.9005H203.056C202.578 25.9005 202.339 26.2192 202.339 26.856V33.4707C202.339 34.1201 202.578 34.4451 203.056 34.4451H205.311C205.776 34.4451 206.01 34.1207 206.01 33.4707Z" fill="white"/>
<path d="M217.738 36.104H209.818V34.5662L215.326 25.9005H211.672V27.9006H209.818V24.2422H217.535V25.7455L212.062 34.4451H215.904V32.4123H217.738V36.104Z" fill="white"/>
<path d="M229.501 25.9005H228.481V36.104H226.683L222.056 27.2845C222.158 27.9791 222.209 28.5895 222.209 29.1134V36.104H219.455V34.4451H220.477V25.9005H219.455V24.2422H222.429L226.898 33.0447C226.797 32.3377 226.747 31.7341 226.747 31.2328V24.2422H229.501V25.9005Z" fill="white"/>
<path d="M240.805 36.104H238.239L237.32 32.3615H234.09L233.206 36.104H230.895V34.4451H231.796L234.481 24.2422H237.2L239.887 34.4451H240.805V36.104ZM236.945 30.7873L235.737 25.61L234.48 30.7873H236.945Z" fill="white"/>
<path d="M252.277 25.9005H251.258V36.104H249.461L244.831 27.2846C244.934 27.9791 244.984 28.5896 244.984 29.1134V36.104H242.231V34.4451H243.252V25.9005H242.231V24.2423H245.205L249.674 33.0448C249.573 32.3377 249.523 31.7341 249.523 31.2328V24.2423H252.277V25.9005ZM249.405 20.8925L247.807 23.3024H246.327L247.551 20.8925H249.405Z" fill="white"/>
<path d="M261.184 33.9501C261.184 34.6101 260.998 35.1353 260.631 35.5218C260.262 35.9101 259.767 36.104 259.143 36.104H253.993V32.6181H255.913V34.4451H258.581C259.058 34.4451 259.295 34.1201 259.295 33.4708V31.9506C259.295 31.3006 259.058 30.9756 258.581 30.9756H256.151C255.527 30.9756 255.031 30.7817 254.664 30.3946C254.296 30.0075 254.111 29.483 254.111 28.8217V26.3949C254.111 25.7342 254.296 25.2097 254.664 24.8226C255.031 24.4349 255.527 24.2416 256.151 24.2416H260.996V27.4201H259.143V25.9005H256.712C256.237 25.9005 255.997 26.2192 255.997 26.856V28.2413C255.997 28.8907 256.237 29.2151 256.712 29.2151H259.143C259.766 29.2151 260.261 29.4096 260.63 29.7967C260.998 30.1844 261.183 30.7089 261.183 31.3696V33.9501H261.184Z" fill="white"/>
<path d="M271.976 36.104H269.088V31.9324C269.088 31.2855 268.848 30.9592 268.373 30.9592H265.924V36.104H263.036V34.4451H264.039V25.9005H263.036V24.2422H265.924V29.5746L269.071 24.2422H271.399V25.9005H270.022L267.744 29.4202H268.917C269.54 29.4202 270.038 29.6153 270.413 30.0018C270.785 30.3896 270.973 30.9134 270.973 31.5735V34.4445H271.976L271.976 36.104Z" fill="white"/>
<path d="M283.381 36.104H280.815L279.899 32.3615H276.667L275.784 36.104H273.472V34.4451H274.373L277.059 24.2422H279.778L282.464 34.4451H283.381V36.104ZM279.523 30.7873L278.315 25.61L277.058 30.7873H279.523Z" fill="white"/>
<path d="M283.222 12.1591H71.8455V13.1077H283.222V12.1591Z" fill="white"/>
<path d="M283.222 47.3446H71.8455V48.2938H283.222V47.3446Z" fill="white"/>
</svg>
