<svg width="46" height="46" viewBox="0 0 46 46" fill="none" xmlns="http://www.w3.org/2000/svg">
<path d="M46 23C46 35.7025 35.7025 46 23 46C10.2975 46 0 35.7025 0 23C0 10.2975 10.2975 0 23 0C35.7025 0 46 10.2975 46 23ZM15.3915 13.3585C14.8301 12.7972 13.9199 12.7972 13.3585 13.3585C12.7972 13.9199 12.7972 14.8301 13.3585 15.3915L20.9671 23L13.3585 30.6085C12.7972 31.1699 12.7972 32.0801 13.3585 32.6415C13.9199 33.2028 14.8301 33.2028 15.3915 32.6415L23 25.0329L30.6085 32.6415C31.1699 33.2028 32.0801 33.2028 32.6415 32.6415C33.2028 32.0801 33.2028 31.1699 32.6415 30.6085L25.0329 23L32.6415 15.3915C33.2028 14.8301 33.2028 13.9199 32.6415 13.3585C32.0801 12.7972 31.1699 12.7972 30.6085 13.3585L23 20.9671L15.3915 13.3585Z" fill="#CC3300"/>
</svg>
