<svg width="47" height="46" viewBox="0 0 47 46" fill="none" xmlns="http://www.w3.org/2000/svg">
<path d="M46.7715 23C46.7715 35.7025 36.474 46 23.7715 46C11.0689 46 0.771484 35.7025 0.771484 23C0.771484 10.2975 11.0689 0 23.7715 0C36.474 0 46.7715 10.2975 46.7715 23ZM23.7715 11.5C22.2322 11.5 21.0294 12.8291 21.1826 14.3607L22.1909 24.4446C22.2721 25.2566 22.9554 25.875 23.7715 25.875C24.5875 25.875 25.2708 25.2566 25.352 24.4446L26.3604 14.3607C26.5136 12.8291 25.3108 11.5 23.7715 11.5ZM23.7759 28.75C22.1881 28.75 20.9009 30.0372 20.9009 31.625C20.9009 33.2128 22.1881 34.5 23.7759 34.5C25.3637 34.5 26.6509 33.2128 26.6509 31.625C26.6509 30.0372 25.3637 28.75 23.7759 28.75Z" fill="#FFCC00"/>
</svg>
