<svg width="47" height="46" viewBox="0 0 47 46" fill="none" xmlns="http://www.w3.org/2000/svg">
<path d="M46.5428 23C46.5428 35.7025 36.2454 46 23.5428 46C10.8403 46 0.542847 35.7025 0.542847 23C0.542847 10.2975 10.8403 0 23.5428 0C36.2454 0 46.5428 10.2975 46.5428 23ZM35.13 14.2878C34.288 13.4457 32.9227 13.4457 32.0806 14.2878C32.0603 14.3081 32.0412 14.3297 32.0234 14.3523L22.0404 27.0731L16.0215 21.0543C15.1794 20.2122 13.8142 20.2122 12.9721 21.0543C12.13 21.8963 12.13 23.2616 12.9721 24.1037L20.5806 31.7122C21.4227 32.5543 22.788 32.5543 23.63 31.7122C23.6488 31.6934 23.6665 31.6737 23.683 31.653L35.1606 17.306C35.972 16.4617 35.9618 15.1195 35.13 14.2878Z" fill="#339900"/>
</svg>
