<svg width="256" height="256" viewBox="0 0 256 256" fill="none" xmlns="http://www.w3.org/2000/svg">
<path d="M58.4619 21.2558C54.4549 16.1038 46.8392 15.6298 42.224 20.245L25.6813 36.7877C17.9456 44.5234 15.1019 55.4826 18.4816 65.0955C32.0541 103.7 54.2744 139.947 85.1635 170.837C116.053 201.725 152.3 223.946 190.904 237.518C200.517 240.898 211.477 238.054 219.213 230.318L235.755 213.776C240.37 209.162 239.896 201.546 234.744 197.538L197.845 168.838C195.213 166.792 191.786 166.069 188.552 166.877L153.527 175.634C144.013 178.011 133.949 175.224 127.015 168.29L87.7099 128.985C80.7758 122.051 77.9883 111.987 80.3667 102.473L89.123 67.4485C89.9317 64.2138 89.2083 60.7869 87.1613 58.1549L58.4619 21.2558ZM30.1563 8.17722C42.0302 -3.69662 61.624 -2.47675 71.9333 10.7781L100.633 47.6773C105.899 54.4486 107.76 63.2654 105.68 71.5877L96.9235 106.613C95.999 110.31 97.0826 114.222 99.7776 116.917L139.083 156.222C141.778 158.918 145.69 160.002 149.387 159.077L184.413 150.32C192.734 148.24 201.552 150.101 208.323 155.368L245.222 184.067C258.477 194.376 259.696 213.97 247.822 225.843L231.28 242.387C219.445 254.222 201.742 259.419 185.245 253.619C144.281 239.218 105.83 215.638 73.0958 182.904C40.3616 150.17 16.7832 111.719 2.38141 70.756C-3.41891 54.2579 1.77808 36.5555 13.6136 24.72L30.1563 8.17722Z" fill="white"/>
</svg>
