<svg width="128" height="128" viewBox="0 0 128 128" fill="none" xmlns="http://www.w3.org/2000/svg">
<path d="M55.6504 116.273C56.167 123.759 63.265 129.543 70.9104 127.632L73.0018 127.109C76.7012 126.184 79.9938 123.46 81.0927 119.392C82.8561 112.864 85.3589 99.2986 81.5953 83.3159C82.6824 83.4647 83.8721 83.6048 85.1379 83.7199C90.8376 84.2381 98.4878 84.2901 105.265 82.0311C109.411 80.649 113.219 76.589 114.861 71.8525C116.337 67.5934 116.146 62.5575 112.989 57.9862C113.459 57.0393 113.82 56.0512 114.096 55.0852C114.714 52.924 115 50.5474 115 48.2363C115 45.9252 114.714 43.5487 114.096 41.3874C113.788 40.309 113.374 39.2029 112.821 38.1574C114.167 35.0634 113.673 31.6051 112.795 28.9714C111.932 26.3835 110.497 23.863 108.885 21.7646C109.318 20.5458 109.5 19.2677 109.5 18.0488C109.5 15.6014 108.785 13.0483 107.473 10.7518C104.792 6.05939 99.4965 2.23633 92 2.23633H64C59.1629 2.23633 55.4475 2.88667 52.2747 3.97921C49.1341 5.06065 46.6906 6.52495 44.5083 7.85478L44.1275 8.08711C40.0944 10.5491 36.1393 12.9635 27.5834 13.8708C21.4586 14.5203 16 19.4757 16 26.2311V58.2391C16 65.0409 21.484 69.6954 26.8554 71.1606C33.6468 73.0132 39.4473 77.4553 43.9103 82.4428C48.3916 87.4506 51.2248 92.6731 52.2206 95.5462C53.8153 100.147 55.07 107.861 55.6504 116.273Z" fill="white"/>
</svg>
