<svg width="128" height="128" viewBox="0 0 128 128" fill="none" xmlns="http://www.w3.org/2000/svg">
<path d="M70.9104 0.368474C63.265 -1.54289 56.167 4.24082 55.6504 11.7268C55.07 20.1396 53.8153 27.8529 52.2206 32.4541C51.2248 35.3272 48.3916 40.5497 43.9103 45.5575C39.4473 50.545 33.6468 54.9871 26.8554 56.8397C21.484 58.3049 16 62.9594 16 69.7612V101.769C16 108.525 21.4586 113.48 27.5834 114.129C36.1393 115.037 40.0944 117.451 44.1275 119.913L44.5083 120.146C46.6906 121.475 49.1341 122.94 52.2747 124.021C55.4475 125.114 59.1629 125.764 64 125.764H92C99.4965 125.764 104.792 121.941 107.473 117.249C108.785 114.952 109.5 112.399 109.5 109.951C109.5 108.733 109.318 107.455 108.885 106.236C110.497 104.137 111.932 101.617 112.795 99.0289C113.673 96.3952 114.167 92.9369 112.821 89.8428C113.374 88.7974 113.788 87.6913 114.096 86.6129C114.714 84.4516 115 82.0751 115 79.764C115 77.4529 114.714 75.0763 114.096 72.9151C113.82 71.9491 113.459 70.961 112.989 70.0141C116.146 65.4428 116.337 60.4069 114.861 56.1478C113.219 51.4113 109.411 47.3513 105.265 45.9692C98.4878 43.7102 90.8376 43.7622 85.1379 44.2804C83.8721 44.3955 82.6824 44.5356 81.5953 44.6844C85.3589 28.7017 82.8561 15.1362 81.0927 8.6081C79.9938 4.54014 76.7012 1.81617 73.0018 0.891314L70.9104 0.368474ZM92 117.764H64C59.9144 117.764 57.0955 117.22 54.8793 116.457C52.631 115.683 50.8308 114.63 48.6714 113.314L48.3522 113.119C43.9133 110.411 38.7648 107.27 28.427 106.174C25.7644 105.892 24 103.85 24 101.769V69.7611C24 67.7264 25.8072 65.4178 28.9608 64.5576C37.7237 62.1672 44.7748 56.5882 49.8719 50.8921C54.9508 45.2164 58.3864 39.093 59.7794 35.0738C61.7203 29.4738 63.0344 20.9301 63.6315 12.2774C63.8315 9.37893 66.5173 7.51628 68.9701 8.1295L71.0615 8.65234C72.3463 8.97355 73.1286 9.80231 73.3695 10.6942C75.1324 17.2204 77.7541 31.8526 72.2053 48.4989C71.7436 49.884 72.0732 51.4105 73.0651 52.4817C74.0567 53.5525 75.5542 53.9979 76.9701 53.6444L76.9909 53.6394L77.1005 53.6132C77.2025 53.5891 77.3611 53.5525 77.5717 53.5061C77.9929 53.4133 78.6205 53.2818 79.4159 53.1345C81.0099 52.8393 83.2601 52.484 85.8621 52.2474C91.1624 51.7656 97.5122 51.8176 102.735 53.5586C104.139 54.0266 106.331 55.9665 107.302 58.7676C108.154 61.2265 107.989 64.1184 105.172 66.9354L102.343 69.7639L105.172 72.5923C105.512 72.9327 106.006 73.72 106.404 75.1127C106.786 76.4515 107 78.075 107 79.7639C107 81.4527 106.786 83.0762 106.404 84.415C106.006 85.8077 105.512 86.595 105.172 86.9354L102.343 89.7639L105.172 92.5923C105.548 92.9686 106.037 94.0037 105.205 96.4989C104.424 98.8433 102.785 101.322 101.172 102.935L98.3431 105.764L101.172 108.592C101.213 108.634 101.5 108.989 101.5 109.951C101.5 110.879 101.215 112.076 100.527 113.279C99.2084 115.587 96.5035 117.764 92 117.764Z" fill="white"/>
</svg>
