<svg width="128" height="128" viewBox="0 0 128 128" fill="none" xmlns="http://www.w3.org/2000/svg">
<path d="M55.6504 13.9631C56.167 6.47714 63.265 0.693436 70.9104 2.6048L73.0018 3.12764C76.7012 4.0525 79.9938 6.77647 81.0927 10.8444C82.8561 17.3725 85.3589 30.938 81.5953 46.9207C82.6824 46.7719 83.8721 46.6318 85.1379 46.5167C90.8376 45.9986 98.4878 45.9465 105.265 48.2056C109.411 49.5876 113.219 53.6476 114.861 58.3841C116.337 62.6432 116.146 67.6791 112.989 72.2505C113.459 73.1973 113.82 74.1854 114.096 75.1514C114.714 77.3127 115 79.6892 115 82.0003C115 84.3114 114.714 86.6879 114.096 88.8492C113.788 89.9277 113.374 91.0337 112.821 92.0792C114.167 95.1732 113.673 98.6315 112.795 101.265C111.932 103.853 110.497 106.374 108.885 108.472C109.318 109.691 109.5 110.969 109.5 112.188C109.5 114.635 108.785 117.188 107.473 119.485C104.792 124.177 99.4965 128 92 128H64C59.1629 128 55.4475 127.35 52.2747 126.257C49.1341 125.176 46.6906 123.712 44.5083 122.382L44.1275 122.15C40.0944 119.687 36.1393 117.273 27.5834 116.366C21.4586 115.716 16 110.761 16 104.006V71.9976C16 65.1957 21.484 60.5413 26.8554 59.076C33.6468 57.2235 39.4473 52.7813 43.9103 47.7938C48.3916 42.786 51.2248 37.5635 52.2206 34.6904C53.8153 30.0892 55.07 22.3759 55.6504 13.9631Z" fill="white"/>
</svg>
