<svg width="128" height="128" viewBox="0 0 128 128" fill="none" xmlns="http://www.w3.org/2000/svg">
<path d="M70.9104 125.395C63.265 127.307 56.167 121.523 55.6504 114.037C55.07 105.624 53.8153 97.9111 52.2206 93.3099C51.2248 90.4368 48.3916 85.2143 43.9103 80.2065C39.4473 75.219 33.6468 70.7768 26.8554 68.9243C21.484 67.459 16 62.8046 16 56.0027V23.9948C16 17.2393 21.4586 12.284 27.5834 11.6345C36.1393 10.7272 40.0944 8.31281 44.1275 5.85078L44.5083 5.61845C46.6906 4.28862 49.1341 2.82432 52.2747 1.74288C55.4475 0.650345 59.1629 0 64 0H92C99.4965 0 104.792 3.82307 107.473 8.51544C108.785 10.8119 109.5 13.3651 109.5 15.8125C109.5 17.0313 109.318 18.3094 108.885 19.5283C110.497 21.6267 111.932 24.1472 112.795 26.7351C113.673 29.3688 114.167 32.8271 112.821 35.9211C113.374 36.9666 113.788 38.0726 114.096 39.1511C114.714 41.3124 115 43.6889 115 46C115 48.3111 114.714 50.6876 114.096 52.8489C113.82 53.8148 113.459 54.803 112.989 55.7498C116.146 60.3212 116.337 65.3571 114.861 69.6162C113.219 74.3527 109.411 78.4127 105.265 79.7947C98.4878 82.0538 90.8376 82.0017 85.1379 81.4836C83.8721 81.3685 82.6824 81.2284 81.5953 81.0796C85.3589 97.0623 82.8561 110.628 81.0927 117.156C79.9938 121.224 76.7012 123.948 73.0018 124.873L70.9104 125.395ZM92 8.00011H64C59.9144 8.00011 57.0955 8.54399 54.8793 9.30711C52.631 10.0813 50.8308 11.1341 48.6714 12.45L48.3522 12.6447C43.9133 15.3528 38.7648 18.4938 28.427 19.59C25.7644 19.8724 24 21.9137 24 23.9949V56.0029C24 58.0376 25.8072 60.3461 28.9608 61.2064C37.7237 63.5968 44.7748 69.1758 49.8719 74.8718C54.9508 80.5476 58.3864 86.671 59.7794 90.6902C61.7203 96.2902 63.0344 104.834 63.6315 113.487C63.8315 116.385 66.5173 118.248 68.9701 117.634L71.0615 117.112C72.3463 116.79 73.1286 115.962 73.3695 115.07C75.1324 108.544 77.7541 93.9114 72.2053 77.265C71.7436 75.88 72.0732 74.3535 73.0651 73.2823C74.0567 72.2115 75.5542 71.7661 76.9701 72.1195L76.9909 72.1246L77.1005 72.1508C77.2025 72.1748 77.3611 72.2115 77.5717 72.2579C77.9929 72.3507 78.6205 72.4822 79.4159 72.6295C81.0099 72.9247 83.2601 73.28 85.8621 73.5165C91.1624 73.9984 97.5122 73.9464 102.735 72.2054C104.139 71.7374 106.331 69.7975 107.302 66.9964C108.154 64.5375 107.989 61.6456 105.172 58.8285L102.343 56.0001L105.172 53.1717C105.512 52.8313 106.006 52.044 106.404 50.6512C106.786 49.3125 107 47.689 107 46.0001C107 44.3112 106.786 42.6877 106.404 41.349C106.006 39.9562 105.512 39.1689 105.172 38.8285L102.343 36.0001L105.172 33.1717C105.548 32.7954 106.037 31.7603 105.205 29.265C104.424 26.9206 102.785 24.4418 101.172 22.8285L98.3431 20.0001L101.172 17.1717C101.213 17.1298 101.5 16.7748 101.5 15.8126C101.5 14.885 101.215 13.6882 100.527 12.4847C99.2084 10.177 96.5035 8.00011 92 8.00011Z" fill="white"/>
</svg>
