<svg width="64" height="64" viewBox="0 0 64 64" fill="none" xmlns="http://www.w3.org/2000/svg">
<path d="M26 4H38C39.1046 4 40 4.89543 40 6V10H24V6C24 4.89543 24.8954 4 26 4ZM44 10V6C44 2.68629 41.3137 0 38 0H26C22.6863 0 20 2.68629 20 6V10H10.0226C10.009 9.99986 9.99541 9.99986 9.98176 10H6C4.89543 10 4 10.8954 4 12C4 13.1046 4.89543 14 6 14H8.15361L11.5646 56.638C11.8973 60.7956 15.3683 64 19.5392 64H44.4608C48.6317 64 52.1027 60.7956 52.4354 56.638L55.8464 14H58C59.1046 14 60 13.1046 60 12C60 10.8954 59.1046 10 58 10H54.0182C54.0046 9.99986 53.991 9.99986 53.9774 10H44ZM51.8336 14L48.4481 56.319C48.2818 58.3978 46.5463 60 44.4608 60H19.5392C17.4537 60 15.7182 58.3978 15.5519 56.319L12.1664 14H51.8336ZM21.8826 18.0035C22.9852 17.9386 23.9317 18.7799 23.9965 19.8826L25.9965 53.8826C26.0614 54.9852 25.2201 55.9317 24.1174 55.9965C23.0148 56.0614 22.0683 55.2201 22.0035 54.1174L20.0035 20.1174C19.9386 19.0148 20.7799 18.0683 21.8826 18.0035ZM42.1174 18.0035C43.2201 18.0683 44.0614 19.0148 43.9965 20.1174L41.9965 54.1174C41.9317 55.2201 40.9852 56.0614 39.8826 55.9965C38.7799 55.9317 37.9386 54.9852 38.0035 53.8826L40.0035 19.8826C40.0683 18.7799 41.0148 17.9386 42.1174 18.0035ZM32 18C33.1046 18 34 18.8954 34 20V54C34 55.1046 33.1046 56 32 56C30.8954 56 30 55.1046 30 54V20C30 18.8954 30.8954 18 32 18Z" fill="white"/>
</svg>
