<svg width="64" height="64" viewBox="0 0 64 64" fill="none" xmlns="http://www.w3.org/2000/svg">
<path d="M6 12C4.89543 12 4 12.8954 4 14V22H24C25.1046 22 26 22.8954 26 24C26 25.0133 26.3204 26.5777 27.2231 27.8314C28.0523 28.9831 29.4518 30 32 30C34.5482 30 35.9477 28.9831 36.7769 27.8314C37.6796 26.5777 38 25.0133 38 24C38 22.8954 38.8954 22 40 22H60V14C60 12.8954 59.1046 12 58 12H6ZM60 26H41.7957C41.5328 27.3336 40.9902 28.8253 40.0231 30.1686C38.4523 32.3503 35.8518 34 32 34C28.1482 34 25.5477 32.3503 23.9769 30.1686C23.0098 28.8253 22.4672 27.3336 22.2043 26H4V50C4 51.1046 4.89543 52 6 52H58C59.1046 52 60 51.1046 60 50V26ZM0 14C0 10.6863 2.68629 8 6 8H58C61.3137 8 64 10.6863 64 14V50C64 53.3137 61.3137 56 58 56H6C2.68629 56 0 53.3137 0 50V14Z" fill="white"/>
</svg>
