<svg width="64" height="64" viewBox="0 0 64 64" fill="none" xmlns="http://www.w3.org/2000/svg">
<path d="M8.58579 11.4142C7.80474 10.6332 7.80474 9.36683 8.58579 8.58579C9.36684 7.80474 10.6332 7.80474 11.4142 8.58579L32 29.1716L52.5858 8.58579C53.3668 7.80474 54.6332 7.80474 55.4142 8.58579C56.1953 9.36683 56.1953 10.6332 55.4142 11.4142L34.8284 32L55.4142 52.5858C56.1953 53.3668 56.1953 54.6332 55.4142 55.4142C54.6332 56.1953 53.3668 56.1953 52.5858 55.4142L32 34.8284L11.4142 55.4142C10.6332 56.1953 9.36684 56.1953 8.58579 55.4142C7.80474 54.6332 7.80474 53.3668 8.58579 52.5858L29.1716 32L8.58579 11.4142Z" fill="white"/>
</svg>
