<svg width="145" height="145" viewBox="0 0 145 145" fill="none" xmlns="http://www.w3.org/2000/svg">
<rect width="145" height="145" rx="25" fill="#E3170A"/>
<path d="M40.6136 90V86.9318L52.1364 74.3182C53.4886 72.8409 54.6023 71.5568 55.4773 70.4659C56.3523 69.3636 57 68.3295 57.4205 67.3636C57.8523 66.3864 58.0682 65.3636 58.0682 64.2955C58.0682 63.0682 57.7727 62.0057 57.1818 61.108C56.6023 60.2102 55.8068 59.517 54.7955 59.0284C53.7841 58.5398 52.6477 58.2955 51.3864 58.2955C50.0455 58.2955 48.875 58.5739 47.875 59.1307C46.8864 59.6761 46.1193 60.4432 45.5739 61.4318C45.0398 62.4205 44.7727 63.5795 44.7727 64.9091H40.75C40.75 62.8636 41.2216 61.0682 42.1648 59.5227C43.108 57.9773 44.392 56.7727 46.017 55.9091C47.6534 55.0455 49.4886 54.6136 51.5227 54.6136C53.5682 54.6136 55.3807 55.0455 56.9602 55.9091C58.5398 56.7727 59.7784 57.9375 60.6761 59.4034C61.5739 60.8693 62.0227 62.5 62.0227 64.2955C62.0227 65.5795 61.7898 66.8352 61.3239 68.0625C60.8693 69.2784 60.0739 70.6364 58.9375 72.1364C57.8125 73.625 56.25 75.4432 54.25 77.5909L46.4091 85.9773V86.25H62.6364V90H40.6136ZM72.6761 90.2727C71.8352 90.2727 71.1136 89.9716 70.5114 89.3693C69.9091 88.767 69.608 88.0455 69.608 87.2045C69.608 86.3636 69.9091 85.642 70.5114 85.0398C71.1136 84.4375 71.8352 84.1364 72.6761 84.1364C73.517 84.1364 74.2386 84.4375 74.8409 85.0398C75.4432 85.642 75.7443 86.3636 75.7443 87.2045C75.7443 87.7614 75.6023 88.2727 75.3182 88.7386C75.0455 89.2045 74.6761 89.5795 74.2102 89.8636C73.7557 90.1364 73.2443 90.2727 72.6761 90.2727ZM93.0625 90.4773C90.4943 90.4773 88.3068 89.7784 86.5 88.3807C84.6932 86.9716 83.3125 84.9318 82.358 82.2614C81.4034 79.5795 80.9261 76.3409 80.9261 72.5455C80.9261 68.7727 81.4034 65.5511 82.358 62.8807C83.3239 60.1989 84.7102 58.1534 86.517 56.7443C88.3352 55.3239 90.517 54.6136 93.0625 54.6136C95.608 54.6136 97.7841 55.3239 99.5909 56.7443C101.409 58.1534 102.795 60.1989 103.75 62.8807C104.716 65.5511 105.199 68.7727 105.199 72.5455C105.199 76.3409 104.722 79.5795 103.767 82.2614C102.812 84.9318 101.432 86.9716 99.625 88.3807C97.8182 89.7784 95.6307 90.4773 93.0625 90.4773ZM93.0625 86.7273C95.608 86.7273 97.5852 85.5 98.9943 83.0455C100.403 80.5909 101.108 77.0909 101.108 72.5455C101.108 69.5227 100.784 66.9489 100.136 64.8239C99.5 62.6989 98.5795 61.0795 97.375 59.9659C96.1818 58.8523 94.7443 58.2955 93.0625 58.2955C90.5398 58.2955 88.5682 59.5398 87.1477 62.0284C85.7273 64.5057 85.017 68.0114 85.017 72.5455C85.017 75.5682 85.3352 78.1364 85.9716 80.25C86.608 82.3636 87.5227 83.9716 88.7159 85.0739C89.9205 86.1761 91.3693 86.7273 93.0625 86.7273Z" fill="white"/>
</svg>
