<svg width="145" height="145" viewBox="0 0 145 145" fill="none" xmlns="http://www.w3.org/2000/svg">
<rect width="145" height="145" rx="25" fill="#FE9920"/>
<path d="M52.4091 90.4773C50.1591 90.4773 48.1534 90.0909 46.392 89.3182C44.642 88.5455 43.25 87.4716 42.2159 86.0966C41.1932 84.7102 40.6364 83.1023 40.5455 81.2727H44.8409C44.9318 82.3977 45.3182 83.3693 46 84.1875C46.6818 84.9943 47.5739 85.6193 48.6761 86.0625C49.7784 86.5057 51 86.7273 52.3409 86.7273C53.8409 86.7273 55.1705 86.4659 56.3295 85.9432C57.4886 85.4205 58.3977 84.6932 59.0568 83.7614C59.7159 82.8295 60.0455 81.75 60.0455 80.5227C60.0455 79.2386 59.7273 78.108 59.0909 77.1307C58.4545 76.142 57.5227 75.3693 56.2955 74.8125C55.0682 74.2557 53.5682 73.9773 51.7955 73.9773H49V70.2273H51.7955C53.1818 70.2273 54.3977 69.9773 55.4432 69.4773C56.5 68.9773 57.3239 68.2727 57.9148 67.3636C58.517 66.4545 58.8182 65.3864 58.8182 64.1591C58.8182 62.9773 58.5568 61.9489 58.0341 61.0739C57.5114 60.1989 56.7727 59.517 55.8182 59.0284C54.875 58.5398 53.7614 58.2955 52.4773 58.2955C51.2727 58.2955 50.1364 58.517 49.0682 58.9602C48.0114 59.392 47.1477 60.0227 46.4773 60.8523C45.8068 61.6705 45.4432 62.6591 45.3864 63.8182H41.2955C41.3636 61.9886 41.9148 60.3864 42.9489 59.0114C43.983 57.625 45.3352 56.5455 47.0057 55.7727C48.6875 55 50.5341 54.6136 52.5455 54.6136C54.7045 54.6136 56.5568 55.0511 58.1023 55.9261C59.6477 56.7898 60.8352 57.9318 61.6648 59.3523C62.4943 60.7727 62.9091 62.3068 62.9091 63.9545C62.9091 65.9205 62.392 67.5966 61.358 68.983C60.3352 70.3693 58.9432 71.3295 57.1818 71.8636V72.1364C59.3864 72.5 61.108 73.4375 62.3466 74.9489C63.5852 76.4489 64.2045 78.3068 64.2045 80.5227C64.2045 82.4205 63.6875 84.125 62.6534 85.6364C61.6307 87.1364 60.233 88.3182 58.4602 89.1818C56.6875 90.0455 54.6705 90.4773 52.4091 90.4773ZM73.098 90.2727C72.2571 90.2727 71.5355 89.9716 70.9332 89.3693C70.331 88.767 70.0298 88.0455 70.0298 87.2045C70.0298 86.3636 70.331 85.642 70.9332 85.0398C71.5355 84.4375 72.2571 84.1364 73.098 84.1364C73.9389 84.1364 74.6605 84.4375 75.2628 85.0398C75.8651 85.642 76.1662 86.3636 76.1662 87.2045C76.1662 87.7614 76.0241 88.2727 75.7401 88.7386C75.4673 89.2045 75.098 89.5795 74.6321 89.8636C74.1776 90.1364 73.6662 90.2727 73.098 90.2727ZM93.5227 90.4773C91.5227 90.4773 89.7216 90.0795 88.1193 89.2841C86.517 88.4886 85.233 87.3977 84.267 86.0114C83.3011 84.625 82.7727 83.0455 82.6818 81.2727H86.7727C86.9318 82.8523 87.6477 84.1591 88.9205 85.1932C90.2045 86.2159 91.7386 86.7273 93.5227 86.7273C94.9545 86.7273 96.2273 86.392 97.3409 85.7216C98.4659 85.0511 99.3466 84.1307 99.983 82.9602C100.631 81.7784 100.955 80.4432 100.955 78.9545C100.955 77.4318 100.619 76.0739 99.9489 74.8807C99.2898 73.6761 98.3807 72.7273 97.2216 72.0341C96.0625 71.3409 94.7386 70.9886 93.25 70.9773C92.1818 70.9659 91.0852 71.1307 89.9602 71.4716C88.8352 71.8011 87.9091 72.2273 87.1818 72.75L83.2273 72.2727L85.3409 55.0909H103.477V58.8409H88.8864L87.6591 69.1364H87.8636C88.5795 68.5682 89.4773 68.0966 90.5568 67.7216C91.6364 67.3466 92.7614 67.1591 93.9318 67.1591C96.0682 67.1591 97.9716 67.6705 99.642 68.6932C101.324 69.7045 102.642 71.0909 103.597 72.8523C104.562 74.6136 105.045 76.625 105.045 78.8864C105.045 81.1136 104.545 83.1023 103.545 84.8523C102.557 86.5909 101.193 87.9659 99.4545 88.9773C97.7159 89.9773 95.7386 90.4773 93.5227 90.4773Z" fill="white"/>
</svg>
