<svg width="145" height="145" viewBox="0 0 145 145" fill="none" xmlns="http://www.w3.org/2000/svg">
<rect width="145" height="145" rx="25" fill="#FE9920"/>
<path d="M52.4091 90.4773C50.1591 90.4773 48.1534 90.0909 46.392 89.3182C44.642 88.5455 43.25 87.4716 42.2159 86.0966C41.1932 84.7102 40.6364 83.1023 40.5455 81.2727H44.8409C44.9318 82.3977 45.3182 83.3693 46 84.1875C46.6818 84.9943 47.5739 85.6193 48.6761 86.0625C49.7784 86.5057 51 86.7273 52.3409 86.7273C53.8409 86.7273 55.1705 86.4659 56.3295 85.9432C57.4886 85.4205 58.3977 84.6932 59.0568 83.7614C59.7159 82.8295 60.0455 81.75 60.0455 80.5227C60.0455 79.2386 59.7273 78.108 59.0909 77.1307C58.4545 76.142 57.5227 75.3693 56.2955 74.8125C55.0682 74.2557 53.5682 73.9773 51.7955 73.9773H49V70.2273H51.7955C53.1818 70.2273 54.3977 69.9773 55.4432 69.4773C56.5 68.9773 57.3239 68.2727 57.9148 67.3636C58.517 66.4545 58.8182 65.3864 58.8182 64.1591C58.8182 62.9773 58.5568 61.9489 58.0341 61.0739C57.5114 60.1989 56.7727 59.517 55.8182 59.0284C54.875 58.5398 53.7614 58.2955 52.4773 58.2955C51.2727 58.2955 50.1364 58.517 49.0682 58.9602C48.0114 59.392 47.1477 60.0227 46.4773 60.8523C45.8068 61.6705 45.4432 62.6591 45.3864 63.8182H41.2955C41.3636 61.9886 41.9148 60.3864 42.9489 59.0114C43.983 57.625 45.3352 56.5455 47.0057 55.7727C48.6875 55 50.5341 54.6136 52.5455 54.6136C54.7045 54.6136 56.5568 55.0511 58.1023 55.9261C59.6477 56.7898 60.8352 57.9318 61.6648 59.3523C62.4943 60.7727 62.9091 62.3068 62.9091 63.9545C62.9091 65.9205 62.392 67.5966 61.358 68.983C60.3352 70.3693 58.9432 71.3295 57.1818 71.8636V72.1364C59.3864 72.5 61.108 73.4375 62.3466 74.9489C63.5852 76.4489 64.2045 78.3068 64.2045 80.5227C64.2045 82.4205 63.6875 84.125 62.6534 85.6364C61.6307 87.1364 60.233 88.3182 58.4602 89.1818C56.6875 90.0455 54.6705 90.4773 52.4091 90.4773ZM73.098 90.2727C72.2571 90.2727 71.5355 89.9716 70.9332 89.3693C70.331 88.767 70.0298 88.0455 70.0298 87.2045C70.0298 86.3636 70.331 85.642 70.9332 85.0398C71.5355 84.4375 72.2571 84.1364 73.098 84.1364C73.9389 84.1364 74.6605 84.4375 75.2628 85.0398C75.8651 85.642 76.1662 86.3636 76.1662 87.2045C76.1662 87.7614 76.0241 88.2727 75.7401 88.7386C75.4673 89.2045 75.098 89.5795 74.6321 89.8636C74.1776 90.1364 73.6662 90.2727 73.098 90.2727ZM93.4844 90.4773C90.9162 90.4773 88.7287 89.7784 86.9219 88.3807C85.1151 86.9716 83.7344 84.9318 82.7798 82.2614C81.8253 79.5795 81.348 76.3409 81.348 72.5455C81.348 68.7727 81.8253 65.5511 82.7798 62.8807C83.7457 60.1989 85.1321 58.1534 86.9389 56.7443C88.7571 55.3239 90.9389 54.6136 93.4844 54.6136C96.0298 54.6136 98.206 55.3239 100.013 56.7443C101.831 58.1534 103.217 60.1989 104.172 62.8807C105.138 65.5511 105.621 68.7727 105.621 72.5455C105.621 76.3409 105.143 79.5795 104.189 82.2614C103.234 84.9318 101.854 86.9716 100.047 88.3807C98.2401 89.7784 96.0526 90.4773 93.4844 90.4773ZM93.4844 86.7273C96.0298 86.7273 98.0071 85.5 99.4162 83.0455C100.825 80.5909 101.53 77.0909 101.53 72.5455C101.53 69.5227 101.206 66.9489 100.558 64.8239C99.9219 62.6989 99.0014 61.0795 97.7969 59.9659C96.6037 58.8523 95.1662 58.2955 93.4844 58.2955C90.9616 58.2955 88.9901 59.5398 87.5696 62.0284C86.1491 64.5057 85.4389 68.0114 85.4389 72.5455C85.4389 75.5682 85.7571 78.1364 86.3935 80.25C87.0298 82.3636 87.9446 83.9716 89.1378 85.0739C90.3423 86.1761 91.7912 86.7273 93.4844 86.7273Z" fill="white"/>
</svg>
