<svg width="145" height="145" viewBox="0 0 145 145" fill="none" xmlns="http://www.w3.org/2000/svg">
<rect width="145" height="145" rx="25" fill="#E3170A"/>
<path d="M70.9091 55.0909V90H66.8182L47.7955 62.5909H47.4545V90H43.2273V55.0909H47.3182L66.4091 82.5682H66.75V55.0909H70.9091ZM79.3679 90V55.0909H91.5724C94.0043 55.0909 96.0099 55.5114 97.5895 56.3523C99.169 57.1818 100.345 58.3011 101.118 59.7102C101.891 61.108 102.277 62.6591 102.277 64.3636C102.277 65.8636 102.01 67.1023 101.476 68.0795C100.953 69.0568 100.26 69.8295 99.3963 70.3977C98.544 70.9659 97.6179 71.3864 96.6179 71.6591V72C97.6861 72.0682 98.7599 72.4432 99.8395 73.125C100.919 73.8068 101.822 74.7841 102.55 76.0568C103.277 77.3295 103.641 78.8864 103.641 80.7273C103.641 82.4773 103.243 84.0511 102.447 85.4489C101.652 86.8466 100.396 87.9545 98.6804 88.7727C96.9645 89.5909 94.7315 90 91.9815 90H79.3679ZM83.5952 86.25H91.9815C94.7429 86.25 96.7031 85.7159 97.8622 84.6477C99.0327 83.5682 99.6179 82.2614 99.6179 80.7273C99.6179 79.5455 99.3168 78.4545 98.7145 77.4545C98.1122 76.4432 97.2543 75.6364 96.1406 75.0341C95.027 74.4205 93.7088 74.1136 92.1861 74.1136H83.5952V86.25ZM83.5952 70.4318H91.4361C92.7088 70.4318 93.8565 70.1818 94.8793 69.6818C95.9134 69.1818 96.7315 68.4773 97.3338 67.5682C97.9474 66.6591 98.2543 65.5909 98.2543 64.3636C98.2543 62.8295 97.7202 61.5284 96.652 60.4602C95.5838 59.3807 93.8906 58.8409 91.5724 58.8409H83.5952V70.4318Z" fill="white"/>
</svg>
