<svg width="145" height="145" viewBox="0 0 145 145" fill="none" xmlns="http://www.w3.org/2000/svg">
<rect width="145" height="145" rx="25" fill="#69A85C"/>
<path d="M39.7955 82.8409V79.3636L55.1364 55.0909H57.6591V60.4773H55.9545L44.3636 78.8182V79.0909H65.0227V82.8409H39.7955ZM56.2273 90V81.7841V80.1648V55.0909H60.25V90H56.2273ZM72.7699 90.2727C71.929 90.2727 71.2074 89.9716 70.6051 89.3693C70.0028 88.767 69.7017 88.0455 69.7017 87.2045C69.7017 86.3636 70.0028 85.642 70.6051 85.0398C71.2074 84.4375 71.929 84.1364 72.7699 84.1364C73.6108 84.1364 74.3324 84.4375 74.9347 85.0398C75.5369 85.642 75.8381 86.3636 75.8381 87.2045C75.8381 87.7614 75.696 88.2727 75.4119 88.7386C75.1392 89.2045 74.7699 89.5795 74.304 89.8636C73.8494 90.1364 73.3381 90.2727 72.7699 90.2727ZM93.1946 90.4773C91.1946 90.4773 89.3935 90.0795 87.7912 89.2841C86.1889 88.4886 84.9048 87.3977 83.9389 86.0114C82.973 84.625 82.4446 83.0455 82.3537 81.2727H86.4446C86.6037 82.8523 87.3196 84.1591 88.5923 85.1932C89.8764 86.2159 91.4105 86.7273 93.1946 86.7273C94.6264 86.7273 95.8991 86.392 97.0128 85.7216C98.1378 85.0511 99.0185 84.1307 99.6548 82.9602C100.303 81.7784 100.626 80.4432 100.626 78.9545C100.626 77.4318 100.291 76.0739 99.6207 74.8807C98.9616 73.6761 98.0526 72.7273 96.8935 72.0341C95.7344 71.3409 94.4105 70.9886 92.9219 70.9773C91.8537 70.9659 90.7571 71.1307 89.6321 71.4716C88.5071 71.8011 87.581 72.2273 86.8537 72.75L82.8991 72.2727L85.0128 55.0909H103.149V58.8409H88.5582L87.331 69.1364H87.5355C88.2514 68.5682 89.1491 68.0966 90.2287 67.7216C91.3082 67.3466 92.4332 67.1591 93.6037 67.1591C95.7401 67.1591 97.6435 67.6705 99.3139 68.6932C100.996 69.7045 102.314 71.0909 103.268 72.8523C104.234 74.6136 104.717 76.625 104.717 78.8864C104.717 81.1136 104.217 83.1023 103.217 84.8523C102.229 86.5909 100.865 87.9659 99.1264 88.9773C97.3878 89.9773 95.4105 90.4773 93.1946 90.4773Z" fill="white"/>
</svg>
