<svg width="145" height="145" viewBox="0 0 145 145" fill="none" xmlns="http://www.w3.org/2000/svg">
<rect width="145" height="145" rx="25" fill="#E3170A"/>
<path d="M41.9091 55.0909V90H37.8182L18.7955 62.5909H18.4545V90H14.2273V55.0909H18.3182L37.4091 82.5682H37.75V55.0909H41.9091ZM49.2088 90V86.9318L68.027 58.8409H49.0043V55.0909H73.0724V58.1591L54.2543 86.25H73.277V90H49.2088ZM81.7997 90H77.3679L90.1861 55.0909H94.5497L107.368 90H102.936L92.5043 60.6136H92.2315L81.7997 90ZM83.4361 76.3636H101.3V80.1136H83.4361V76.3636ZM112.805 90V55.0909H117.033V86.25H133.26V90H112.805Z" fill="white"/>
</svg>
