<svg width="145" height="145" viewBox="0 0 145 145" fill="none" xmlns="http://www.w3.org/2000/svg">
<rect width="145" height="145" rx="25" fill="#0A8754"/>
<path d="M51.5227 90.4773C49.5227 90.4773 47.7216 90.0795 46.1193 89.2841C44.517 88.4886 43.233 87.3977 42.267 86.0114C41.3011 84.625 40.7727 83.0455 40.6818 81.2727H44.7727C44.9318 82.8523 45.6477 84.1591 46.9205 85.1932C48.2045 86.2159 49.7386 86.7273 51.5227 86.7273C52.9545 86.7273 54.2273 86.392 55.3409 85.7216C56.4659 85.0511 57.3466 84.1307 57.983 82.9602C58.6307 81.7784 58.9545 80.4432 58.9545 78.9545C58.9545 77.4318 58.6193 76.0739 57.9489 74.8807C57.2898 73.6761 56.3807 72.7273 55.2216 72.0341C54.0625 71.3409 52.7386 70.9886 51.25 70.9773C50.1818 70.9659 49.0852 71.1307 47.9602 71.4716C46.8352 71.8011 45.9091 72.2273 45.1818 72.75L41.2273 72.2727L43.3409 55.0909H61.4773V58.8409H46.8864L45.6591 69.1364H45.8636C46.5795 68.5682 47.4773 68.0966 48.5568 67.7216C49.6364 67.3466 50.7614 67.1591 51.9318 67.1591C54.0682 67.1591 55.9716 67.6705 57.642 68.6932C59.3239 69.7045 60.642 71.0909 61.5966 72.8523C62.5625 74.6136 63.0455 76.625 63.0455 78.8864C63.0455 81.1136 62.5455 83.1023 61.5455 84.8523C60.5568 86.5909 59.1932 87.9659 57.4545 88.9773C55.7159 89.9773 53.7386 90.4773 51.5227 90.4773ZM71.5043 90.2727C70.6634 90.2727 69.9418 89.9716 69.3395 89.3693C68.7372 88.767 68.4361 88.0455 68.4361 87.2045C68.4361 86.3636 68.7372 85.642 69.3395 85.0398C69.9418 84.4375 70.6634 84.1364 71.5043 84.1364C72.3452 84.1364 73.0668 84.4375 73.669 85.0398C74.2713 85.642 74.5724 86.3636 74.5724 87.2045C74.5724 87.7614 74.4304 88.2727 74.1463 88.7386C73.8736 89.2045 73.5043 89.5795 73.0384 89.8636C72.5838 90.1364 72.0724 90.2727 71.5043 90.2727ZM91.8906 90.4773C89.3224 90.4773 87.1349 89.7784 85.3281 88.3807C83.5213 86.9716 82.1406 84.9318 81.1861 82.2614C80.2315 79.5795 79.7543 76.3409 79.7543 72.5455C79.7543 68.7727 80.2315 65.5511 81.1861 62.8807C82.152 60.1989 83.5384 58.1534 85.3452 56.7443C87.1634 55.3239 89.3452 54.6136 91.8906 54.6136C94.4361 54.6136 96.6122 55.3239 98.419 56.7443C100.237 58.1534 101.624 60.1989 102.578 62.8807C103.544 65.5511 104.027 68.7727 104.027 72.5455C104.027 76.3409 103.55 79.5795 102.595 82.2614C101.641 84.9318 100.26 86.9716 98.4531 88.3807C96.6463 89.7784 94.4588 90.4773 91.8906 90.4773ZM91.8906 86.7273C94.4361 86.7273 96.4134 85.5 97.8224 83.0455C99.2315 80.5909 99.9361 77.0909 99.9361 72.5455C99.9361 69.5227 99.6122 66.9489 98.9645 64.8239C98.3281 62.6989 97.4077 61.0795 96.2031 59.9659C95.0099 58.8523 93.5724 58.2955 91.8906 58.2955C89.3679 58.2955 87.3963 59.5398 85.9759 62.0284C84.5554 64.5057 83.8452 68.0114 83.8452 72.5455C83.8452 75.5682 84.1634 78.1364 84.7997 80.25C85.4361 82.3636 86.3509 83.9716 87.544 85.0739C88.7486 86.1761 90.1974 86.7273 91.8906 86.7273Z" fill="white"/>
</svg>
