<svg width="145" height="145" viewBox="0 0 145 145" fill="none" xmlns="http://www.w3.org/2000/svg">
<rect width="145" height="145" rx="25" fill="#69A85C"/>
<path d="M39.7955 82.8409V79.3636L55.1364 55.0909H57.6591V60.4773H55.9545L44.3636 78.8182V79.0909H65.0227V82.8409H39.7955ZM56.2273 90V81.7841V80.1648V55.0909H60.25V90H56.2273ZM72.7699 90.2727C71.929 90.2727 71.2074 89.9716 70.6051 89.3693C70.0028 88.767 69.7017 88.0455 69.7017 87.2045C69.7017 86.3636 70.0028 85.642 70.6051 85.0398C71.2074 84.4375 71.929 84.1364 72.7699 84.1364C73.6108 84.1364 74.3324 84.4375 74.9347 85.0398C75.5369 85.642 75.8381 86.3636 75.8381 87.2045C75.8381 87.7614 75.696 88.2727 75.4119 88.7386C75.1392 89.2045 74.7699 89.5795 74.304 89.8636C73.8494 90.1364 73.3381 90.2727 72.7699 90.2727ZM93.1562 90.4773C90.5881 90.4773 88.4006 89.7784 86.5938 88.3807C84.7869 86.9716 83.4063 84.9318 82.4517 82.2614C81.4972 79.5795 81.0199 76.3409 81.0199 72.5455C81.0199 68.7727 81.4972 65.5511 82.4517 62.8807C83.4176 60.1989 84.804 58.1534 86.6108 56.7443C88.429 55.3239 90.6108 54.6136 93.1562 54.6136C95.7017 54.6136 97.8778 55.3239 99.6847 56.7443C101.503 58.1534 102.889 60.1989 103.844 62.8807C104.81 65.5511 105.293 68.7727 105.293 72.5455C105.293 76.3409 104.815 79.5795 103.861 82.2614C102.906 84.9318 101.526 86.9716 99.7188 88.3807C97.9119 89.7784 95.7244 90.4773 93.1562 90.4773ZM93.1562 86.7273C95.7017 86.7273 97.679 85.5 99.0881 83.0455C100.497 80.5909 101.202 77.0909 101.202 72.5455C101.202 69.5227 100.878 66.9489 100.23 64.8239C99.5938 62.6989 98.6733 61.0795 97.4688 59.9659C96.2756 58.8523 94.8381 58.2955 93.1562 58.2955C90.6335 58.2955 88.6619 59.5398 87.2415 62.0284C85.821 64.5057 85.1108 68.0114 85.1108 72.5455C85.1108 75.5682 85.429 78.1364 86.0653 80.25C86.7017 82.3636 87.6165 83.9716 88.8097 85.0739C90.0142 86.1761 91.4631 86.7273 93.1562 86.7273Z" fill="white"/>
</svg>
